<?xml version="1.0" encoding="UTF-8" ?>
<!DOCTYPE svg PUBLIC "-//W3C//DTD SVG 1.1//EN" "http://www.w3.org/Graphics/SVG/1.1/DTD/svg11.dtd">
<svg width="587pt" height="318pt" viewBox="0 0 587 318" version="1.1" xmlns="http://www.w3.org/2000/svg">
<g id="#ffffffff">
<path fill="#ffffff" opacity="1.00" d=" M 107.74 8.91 C 130.11 -0.34 155.48 -2.07 178.92 3.91 C 201.35 9.62 221.90 22.47 236.79 40.20 C 253.69 60.02 263.31 85.92 263.26 111.98 C 263.61 135.14 256.36 158.29 243.03 177.22 C 229.22 197.00 208.86 212.12 185.90 219.57 C 160.79 227.74 132.76 226.86 108.32 216.78 C 83.26 206.67 62.23 187.10 50.20 162.92 C 36.32 135.25 34.50 101.62 45.86 72.78 C 47.29 74.17 48.75 75.53 50.19 76.91 C 51.38 78.65 51.06 80.69 50.43 82.57 C 43.47 105.75 44.86 131.39 54.46 153.63 C 64.42 177.11 83.28 196.64 106.36 207.47 C 123.59 215.60 143.10 219.04 162.04 216.90 C 181.43 215.00 200.18 207.39 215.53 195.41 C 234.25 180.86 247.98 159.92 253.36 136.79 C 258.35 115.62 256.73 92.86 248.37 72.75 C 237.17 45.01 213.42 22.75 185.12 13.14 C 161.95 5.17 135.96 5.64 113.15 14.64 C 131.11 32.42 148.67 50.59 166.63 68.38 C 170.51 72.14 175.03 75.63 177.07 80.83 C 180.03 86.79 179.80 93.59 179.94 100.07 C 179.24 107.37 180.26 114.66 180.01 121.97 C 179.91 126.61 180.40 131.43 178.94 135.91 C 177.16 139.68 173.26 142.61 169.00 142.60 C 156.66 142.70 144.31 142.57 131.97 142.66 C 123.17 142.97 114.37 139.11 108.40 132.68 C 98.25 122.42 87.98 112.29 77.83 102.03 C 68.25 93.01 59.73 82.90 49.71 74.32 C 46.61 70.94 42.43 67.88 41.47 63.14 C 40.75 59.43 41.84 55.27 44.68 52.68 C 59.91 37.50 75.07 22.26 90.32 7.10 C 95.27 2.33 103.59 3.79 107.74 8.91 M 146.49 102.77 C 142.05 104.53 138.78 109.24 139.15 114.07 C 139.29 120.05 144.95 125.32 150.94 124.98 C 157.04 124.96 162.62 119.19 162.02 113.03 C 162.14 105.48 153.41 99.77 146.49 102.77 Z" />
<path fill="#ffffff" opacity="1.00" d=" M 304.07 89.11 C 310.40 88.35 317.04 89.90 322.17 93.74 C 329.05 98.68 333.01 107.31 332.34 115.74 C 331.88 122.73 328.40 129.55 322.78 133.79 C 316.74 138.46 308.52 140.36 301.10 138.34 C 292.57 136.37 285.47 129.46 283.15 121.04 C 281.07 114.31 282.21 106.77 285.84 100.79 C 289.72 94.40 296.64 89.97 304.07 89.11 M 303.49 102.69 C 299.18 104.24 296.22 108.51 295.75 112.99 C 295.44 119.85 302.24 126.16 309.08 124.77 C 315.26 123.87 319.96 117.26 318.41 111.13 C 317.19 104.63 309.71 100.37 303.49 102.69 Z" />
<path fill="#ffffff" opacity="1.00" d=" M 392.42 91.44 C 394.35 89.43 397.37 89.20 400.00 89.25 C 409.94 89.86 419.92 89.19 429.86 89.64 C 433.62 91.42 433.01 97.67 429.74 99.63 C 422.00 99.92 414.25 99.66 406.50 99.75 C 406.50 103.42 406.50 107.08 406.50 110.75 C 410.97 110.84 415.45 110.55 419.91 110.89 C 423.50 112.41 423.40 118.22 419.97 119.84 C 415.49 120.22 410.98 119.90 406.50 120.00 C 406.50 123.09 406.50 126.17 406.50 129.25 C 414.21 129.36 421.94 129.04 429.64 129.40 C 433.09 131.26 433.60 137.69 429.79 139.42 C 419.16 139.69 408.51 139.26 397.89 139.70 C 395.64 139.66 392.31 138.79 392.27 136.04 C 392.34 121.17 392.04 106.29 392.42 91.44 Z" />
<path fill="#ffffff" opacity="1.00" d=" M 340.83 91.68 C 341.98 89.45 344.92 89.47 347.11 89.42 C 349.82 89.32 352.64 90.47 353.99 92.93 C 359.47 102.14 364.48 111.62 369.96 120.83 C 370.08 111.52 369.93 102.20 370.02 92.89 C 369.77 91.04 371.66 90.04 373.18 89.71 C 375.80 88.85 378.49 89.73 381.08 90.27 C 381.55 91.46 382.12 92.66 382.01 93.98 C 382.02 108.38 381.96 122.79 382.03 137.20 C 378.55 140.84 371.59 140.59 368.61 136.41 C 363.23 129.97 358.02 123.37 352.56 117.00 C 352.42 124.05 352.57 131.10 352.47 138.15 C 348.84 140.05 344.11 140.25 340.74 137.69 C 340.81 122.36 340.63 107.01 340.83 91.68 Z" />
<path fill="#ffffff" opacity="1.00" d=" M 288.71 154.60 C 301.19 154.36 313.73 153.86 326.20 154.68 C 328.45 156.11 327.96 160.92 324.98 161.11 C 320.66 161.45 316.33 161.16 312.00 161.25 C 311.91 175.13 312.18 189.03 311.87 202.91 C 309.77 205.60 305.50 204.98 302.98 203.18 C 303.03 189.20 302.99 175.23 303.00 161.25 C 298.70 161.18 294.39 161.39 290.09 161.17 C 286.83 161.00 286.27 156.27 288.71 154.60 Z" />
<path fill="#ffffff" opacity="1.00" d=" M 340.77 157.64 C 342.14 152.27 351.90 152.27 353.21 157.68 C 358.62 172.52 364.26 187.28 369.51 202.17 C 367.31 204.48 363.97 205.21 360.95 204.27 C 359.58 200.80 358.38 197.26 357.14 193.75 C 350.40 193.75 343.66 193.75 336.92 193.75 C 335.65 197.27 334.46 200.81 333.04 204.27 C 330.20 205.25 323.57 204.52 325.09 200.28 C 330.16 186.01 335.60 171.88 340.77 157.64 M 347.01 164.83 C 344.16 172.20 341.73 179.71 339.22 187.19 C 344.40 187.62 349.61 187.64 354.79 187.21 C 352.39 179.68 349.66 172.27 347.01 164.83 Z" />
<path fill="#ffffff" opacity="1.00" d=" M 379.79 157.89 C 386.00 153.75 394.05 153.58 401.09 155.34 C 405.35 156.56 409.94 159.00 411.36 163.50 C 412.01 165.72 412.76 168.87 410.27 170.25 C 408.10 171.09 405.50 170.90 403.48 169.75 C 402.44 166.97 401.93 163.37 398.71 162.22 C 394.39 160.53 388.40 160.45 385.16 164.27 C 382.29 168.98 383.93 174.78 383.50 179.99 C 383.93 185.14 382.22 190.99 385.38 195.52 C 388.82 199.08 394.83 198.97 399.08 197.06 C 403.58 194.73 403.06 189.01 402.69 184.74 C 399.46 184.67 396.17 185.05 393.00 184.30 C 390.54 182.68 391.62 177.89 394.87 178.30 C 400.12 178.63 405.41 177.87 410.64 178.67 C 412.25 179.42 411.89 181.50 412.01 182.94 C 411.96 187.46 412.37 192.18 410.75 196.51 C 408.85 201.18 403.91 203.76 399.16 204.60 C 392.60 205.82 385.24 205.35 379.60 201.47 C 375.90 198.96 374.53 194.28 374.51 190.01 C 374.48 183.31 374.50 176.61 374.50 169.91 C 374.45 165.45 375.87 160.46 379.79 157.89 Z" />
<path fill="#ffffff" opacity="1.00" d=" M 473.02 154.49 C 482.66 154.25 492.32 154.05 501.95 154.68 C 503.72 156.43 503.13 158.87 502.20 160.85 C 493.42 161.70 484.56 161.04 475.75 161.25 C 475.75 166.25 475.75 171.25 475.75 176.26 C 480.07 176.86 484.41 176.03 488.74 176.31 C 491.64 176.49 492.18 180.85 490.00 182.30 C 485.31 183.21 480.49 182.56 475.75 182.75 C 475.74 187.73 475.75 192.72 475.74 197.70 C 484.47 198.66 493.26 196.96 501.97 198.23 C 503.05 199.58 503.73 201.40 502.86 203.05 C 502.08 204.98 499.71 204.52 498.05 204.74 C 489.02 204.73 480.00 204.81 470.98 204.70 C 469.31 204.58 466.52 204.33 466.77 202.02 C 466.77 186.71 466.65 171.40 466.83 156.09 C 468.02 153.78 470.93 154.69 473.02 154.49 Z" />
<path fill="#ffffff" opacity="1.00" d=" M 509.77 157.02 C 509.48 155.26 511.39 154.16 512.92 154.33 C 522.32 155.06 532.42 152.59 541.26 156.85 C 547.83 160.02 549.04 169.01 546.19 175.08 C 544.42 179.14 540.11 180.89 536.20 182.22 C 540.20 188.53 544.55 194.64 548.22 201.17 C 546.75 203.31 544.24 205.36 541.49 204.53 C 539.76 204.15 538.81 202.57 537.93 201.19 C 534.22 195.20 530.55 189.18 526.73 183.26 C 524.07 183.25 521.41 183.25 518.75 183.25 C 518.64 189.73 518.95 196.22 518.61 202.69 C 516.63 205.12 512.22 204.84 509.94 202.96 C 509.51 187.66 509.85 172.33 509.77 157.02 M 518.75 161.25 C 518.75 166.41 518.75 171.57 518.75 176.73 C 523.58 177.11 528.55 177.17 533.32 176.21 C 539.65 174.82 540.44 164.73 534.53 162.26 C 529.54 160.26 523.98 161.67 518.75 161.25 Z" />
<path fill="#ffffff" opacity="1.00" d=" M 427.11 157.10 C 433.40 153.65 441.14 153.68 447.91 155.57 C 452.07 156.90 456.50 159.57 457.59 164.12 C 457.97 166.00 458.73 168.64 456.74 169.89 C 454.65 171.32 451.65 170.97 449.54 169.74 C 448.51 167.21 448.14 163.97 445.44 162.58 C 441.55 160.54 436.58 160.54 432.79 162.78 C 430.07 164.51 429.48 168.03 429.49 171.01 C 429.51 176.99 429.48 182.97 429.50 188.95 C 429.52 191.87 430.30 195.29 433.00 196.88 C 437.08 199.04 442.46 199.01 446.29 196.31 C 449.57 193.43 449.04 188.66 448.70 184.75 C 445.41 184.78 442.12 184.80 438.85 184.44 C 437.28 182.55 437.15 178.77 440.16 178.39 C 445.89 178.90 452.15 177.11 457.55 179.27 C 458.38 184.04 458.15 189.05 457.55 193.85 C 456.83 198.80 452.73 202.57 448.06 203.87 C 441.34 205.86 433.71 205.78 427.37 202.57 C 423.10 200.53 420.54 195.72 420.74 191.06 C 420.75 183.36 420.74 175.66 420.74 167.97 C 420.67 163.54 423.15 159.14 427.11 157.10 Z" />
<path fill="#ffffff" opacity="1.00" d=" M 38.00 268.00 C 209.00 268.00 380.00 268.00 551.00 268.00 C 551.00 284.33 551.00 300.67 551.00 317.00 C 380.00 317.00 209.00 317.00 38.00 317.00 C 38.00 300.67 38.00 284.33 38.00 268.00 M 57.82 279.13 C 57.76 288.71 57.76 298.29 57.82 307.87 C 61.56 307.98 65.32 308.17 69.06 307.88 C 76.29 307.24 77.45 295.70 71.57 292.45 C 74.92 289.57 75.74 283.82 72.49 280.59 C 68.19 277.78 62.65 279.37 57.82 279.13 M 79.82 279.12 C 79.76 288.70 79.76 298.29 79.82 307.88 C 85.45 308.06 91.09 308.05 96.72 307.89 C 96.72 307.20 96.73 305.81 96.74 305.11 C 92.29 304.94 87.83 305.02 83.38 305.02 C 83.38 301.68 83.38 298.35 83.38 295.01 C 85.89 294.47 90.34 296.52 90.92 292.99 C 89.07 291.06 85.83 292.36 83.38 292.00 C 83.38 288.65 83.38 285.32 83.38 281.98 C 87.85 281.98 92.31 282.08 96.78 281.86 C 96.76 281.17 96.72 279.79 96.70 279.10 C 91.08 278.95 85.44 278.94 79.82 279.12 M 98.53 279.02 C 98.56 279.76 98.62 281.24 98.65 281.98 C 101.13 281.99 103.62 281.98 106.10 281.98 C 106.18 290.64 105.95 299.30 106.23 307.95 C 106.93 307.92 108.34 307.87 109.04 307.84 C 109.92 306.78 109.44 305.24 109.61 303.99 C 109.57 296.66 109.59 289.33 109.59 282.00 C 112.08 281.99 114.58 281.98 117.07 281.90 C 117.07 281.20 117.06 279.80 117.05 279.10 C 110.88 278.93 104.70 279.03 98.53 279.02 M 119.40 279.01 C 119.49 279.73 119.67 281.18 119.76 281.90 C 122.21 282.07 124.66 282.00 127.10 282.00 C 127.18 290.65 126.95 299.31 127.24 307.96 C 128.34 307.73 130.62 308.52 130.52 306.68 C 130.71 298.45 130.52 290.22 130.59 282.00 C 133.08 281.99 135.57 281.98 138.06 281.90 C 138.06 281.20 138.06 279.80 138.06 279.10 C 131.84 278.93 125.62 279.05 119.40 279.01 M 141.82 279.12 C 141.76 288.71 141.76 298.29 141.82 307.88 C 147.45 308.05 153.09 308.06 158.72 307.89 C 158.73 307.20 158.75 305.82 158.76 305.14 C 154.30 304.92 149.84 305.02 145.38 305.01 C 145.38 301.68 145.38 298.34 145.38 295.01 C 147.87 294.47 152.30 296.52 152.90 293.04 C 151.17 290.99 147.80 292.39 145.38 291.99 C 145.38 288.65 145.38 285.32 145.38 281.99 C 149.82 281.97 154.26 282.05 158.70 281.90 C 158.72 281.21 158.75 279.83 158.77 279.14 C 153.12 278.91 147.47 278.96 141.82 279.12 M 162.82 279.13 C 162.74 288.66 162.80 298.21 162.79 307.75 C 163.93 307.82 165.07 307.89 166.22 307.95 C 166.49 303.63 166.36 299.30 166.38 294.98 C 167.85 294.98 169.32 294.98 170.80 294.99 C 172.91 299.24 174.96 303.53 177.36 307.61 C 178.69 308.68 179.79 307.44 180.77 306.60 C 178.65 302.67 176.65 298.69 174.48 294.80 C 180.74 293.42 182.49 284.39 177.60 280.56 C 173.20 277.84 167.70 279.33 162.82 279.13 M 191.39 279.01 C 191.49 279.73 191.67 281.18 191.77 281.90 C 194.21 282.07 196.66 282.00 199.10 281.99 C 199.17 290.65 198.95 299.31 199.23 307.96 C 200.29 307.72 202.67 308.47 202.53 306.67 C 202.69 298.45 202.53 290.23 202.59 282.01 C 205.02 282.00 207.45 282.09 209.88 281.84 C 209.97 281.16 210.15 279.80 210.23 279.11 C 203.96 278.91 197.67 279.06 191.39 279.01 M 216.63 280.85 C 213.83 289.65 211.07 298.47 208.33 307.29 C 209.45 307.63 210.58 307.93 211.72 308.21 C 212.46 305.82 213.11 303.39 213.81 300.99 C 217.24 300.99 220.67 300.98 224.10 300.99 C 224.82 303.41 225.51 305.83 226.29 308.24 C 227.44 308.12 228.46 307.70 229.35 306.98 C 226.97 298.16 223.99 289.51 221.33 280.78 C 221.02 278.24 216.80 278.31 216.63 280.85 M 234.62 282.51 C 232.75 286.06 233.59 290.19 233.40 294.03 C 233.55 297.87 232.68 302.35 235.40 305.53 C 239.60 309.82 248.83 308.80 250.55 302.50 C 251.07 299.07 250.77 295.59 250.71 292.14 C 247.80 292.01 244.87 291.81 241.97 292.19 C 239.67 295.83 245.21 294.98 247.31 295.04 C 247.09 297.93 248.10 301.47 245.76 303.74 C 243.10 306.28 237.62 305.01 237.16 301.11 C 236.61 297.12 236.98 293.05 236.89 289.03 C 236.92 286.73 237.03 283.68 239.50 282.62 C 242.84 280.69 247.36 282.88 247.60 286.82 C 247.96 287.09 248.67 287.64 249.02 287.92 C 249.53 287.56 250.53 286.86 251.03 286.50 C 251.24 278.27 238.59 276.29 234.62 282.51 M 258.33 280.19 C 253.94 282.38 253.82 289.56 257.92 292.13 C 260.66 293.85 264.03 294.42 266.60 296.46 C 269.25 298.74 268.50 303.77 264.93 304.66 C 261.25 306.21 258.11 303.33 255.17 301.60 C 254.86 302.22 254.23 303.44 253.92 304.06 C 256.97 308.04 262.78 309.05 267.27 307.20 C 271.99 305.35 272.89 298.68 270.23 294.81 C 267.73 291.49 263.19 291.28 259.98 289.02 C 257.63 287.45 258.15 283.17 260.97 282.44 C 263.93 281.15 267.01 282.52 269.77 283.62 C 270.33 282.74 270.88 281.84 271.39 280.92 C 267.47 278.71 262.42 278.14 258.33 280.19 M 301.82 279.13 C 301.76 288.71 301.76 298.29 301.82 307.87 C 305.57 307.98 309.33 308.17 313.08 307.88 C 320.30 307.22 321.44 295.69 315.57 292.45 C 319.51 289.27 319.87 281.43 314.56 279.52 C 310.39 278.54 306.05 279.10 301.82 279.13 M 323.82 279.12 C 323.76 288.70 323.76 298.29 323.82 307.88 C 329.44 308.06 335.07 308.05 340.70 307.90 C 340.72 307.21 340.77 305.84 340.79 305.16 C 336.33 304.90 331.85 305.02 327.38 305.02 C 327.38 301.68 327.38 298.35 327.38 295.01 C 329.88 294.47 334.33 296.52 334.92 293.00 C 333.09 291.04 329.82 292.37 327.38 291.99 C 327.38 288.65 327.38 285.32 327.38 281.98 C 331.82 281.98 336.26 282.05 340.70 281.90 C 340.72 281.21 340.76 279.83 340.78 279.15 C 335.13 278.90 329.47 278.96 323.82 279.12 M 342.52 279.03 C 342.55 279.77 342.62 281.26 342.66 282.00 C 345.14 281.99 347.62 281.99 350.10 281.98 C 350.18 290.65 349.93 299.32 350.25 307.98 C 351.30 307.73 353.67 308.45 353.53 306.66 C 353.69 298.44 353.53 290.22 353.59 282.00 C 356.08 281.99 358.57 281.98 361.07 281.90 C 361.06 281.20 361.06 279.80 361.05 279.10 C 354.88 278.94 348.69 279.03 342.52 279.03 M 362.51 279.04 C 362.55 279.78 362.62 281.26 362.66 282.00 C 365.14 281.99 367.62 281.98 370.10 281.98 C 370.18 290.65 369.93 299.32 370.25 307.98 C 371.32 307.73 373.62 308.48 373.53 306.69 C 373.70 298.46 373.53 290.23 373.59 282.00 C 376.08 281.99 378.57 281.98 381.07 281.90 C 381.04 281.20 380.98 279.78 380.95 279.08 C 374.80 278.96 368.65 279.01 362.51 279.04 M 384.82 279.12 C 384.76 288.71 384.76 298.29 384.82 307.88 C 390.45 308.05 396.10 308.07 401.73 307.88 C 401.74 307.19 401.75 305.82 401.76 305.14 C 397.30 304.92 392.84 305.02 388.38 305.02 C 388.38 301.68 388.38 298.34 388.38 295.00 C 390.79 294.68 397.03 296.43 395.34 292.10 C 393.02 291.92 390.69 291.99 388.38 291.99 C 388.38 288.65 388.38 285.32 388.38 281.98 C 392.83 281.98 397.29 282.07 401.75 281.88 C 401.74 281.19 401.73 279.80 401.73 279.11 C 396.09 278.94 390.45 278.95 384.82 279.12 M 406.82 279.13 C 406.75 288.69 406.77 298.26 406.81 307.83 C 407.67 307.85 409.38 307.89 410.24 307.90 C 410.48 303.60 410.36 299.29 410.38 294.98 C 411.85 294.98 413.32 294.98 414.80 294.99 C 416.92 299.19 418.87 303.50 421.36 307.48 C 422.31 309.29 425.70 306.85 424.08 305.32 C 422.27 301.78 420.39 298.28 418.48 294.80 C 424.75 293.41 426.49 284.35 421.57 280.53 C 417.17 277.85 411.69 279.33 406.82 279.13 M 436.96 279.00 C 436.59 288.65 436.83 298.31 436.82 307.97 C 437.65 307.92 439.30 307.82 440.12 307.77 C 440.70 300.59 440.27 293.34 440.32 286.14 C 442.38 290.18 444.32 294.33 446.85 298.11 C 447.23 298.05 447.98 297.92 448.36 297.86 C 450.80 294.13 452.73 290.10 454.78 286.15 C 454.80 293.42 454.74 300.69 454.82 307.96 C 455.64 307.91 457.27 307.82 458.09 307.78 C 458.59 298.16 458.58 288.43 458.05 278.80 C 456.81 279.20 454.98 278.82 454.31 280.24 C 451.83 284.36 449.80 288.74 447.50 292.96 C 445.21 288.74 443.23 284.34 440.72 280.24 C 440.05 278.72 438.24 279.22 436.96 279.00 M 464.81 279.17 C 464.75 288.73 464.79 298.28 464.79 307.84 C 466.33 307.75 468.81 308.59 468.33 306.10 C 468.39 297.10 468.50 288.09 468.24 279.10 C 467.38 279.12 465.67 279.15 464.81 279.17 M 472.61 280.06 C 474.60 284.81 477.50 289.12 479.85 293.70 C 477.26 298.09 474.57 302.43 472.36 307.03 C 473.39 307.45 474.43 307.87 475.48 308.28 C 477.67 304.68 479.45 300.85 481.68 297.28 C 481.88 297.27 482.28 297.25 482.49 297.24 C 484.67 300.57 486.13 304.34 488.40 307.63 C 489.72 308.67 490.81 307.35 491.78 306.56 C 489.26 302.30 486.87 297.98 484.35 293.72 C 486.57 289.28 489.25 285.09 491.43 280.63 C 491.34 278.89 488.69 278.22 487.95 279.87 C 485.83 283.38 484.11 287.11 482.13 290.69 C 479.87 286.89 478.10 282.82 475.72 279.10 C 474.51 278.82 473.47 279.14 472.61 280.06 M 494.82 279.12 C 494.76 288.70 494.76 298.29 494.82 307.88 C 500.46 308.04 506.12 308.09 511.76 307.86 C 511.75 307.17 511.73 305.80 511.72 305.11 C 507.27 304.94 502.82 305.02 498.38 305.01 C 498.38 301.67 498.38 298.34 498.38 295.00 C 500.64 295.00 502.90 295.07 505.17 294.91 C 505.29 294.18 505.55 292.72 505.68 292.00 C 503.24 292.00 500.81 292.01 498.38 292.02 C 498.38 288.67 498.38 285.33 498.38 281.98 C 502.83 281.98 507.29 282.07 511.74 281.88 C 511.74 281.19 511.74 279.81 511.74 279.12 C 506.10 278.93 500.46 278.95 494.82 279.12 M 518.36 280.17 C 514.81 281.87 514.14 286.79 515.87 290.00 C 518.38 293.96 523.87 293.71 527.02 296.89 C 529.21 299.34 528.25 303.83 524.91 304.67 C 521.82 305.97 518.86 304.12 516.51 302.29 C 515.19 301.22 514.46 303.11 513.69 303.84 C 516.76 307.93 522.65 309.12 527.27 307.19 C 531.98 305.35 532.88 298.72 530.26 294.84 C 527.76 291.50 523.21 291.29 519.98 289.03 C 517.82 287.59 518.02 283.68 520.47 282.65 C 523.56 281.09 527.02 282.33 529.90 283.74 C 530.33 282.77 530.79 281.81 531.28 280.86 C 527.39 278.71 522.40 278.17 518.36 280.17 M 276.12 304.23 C 273.64 306.36 277.38 309.69 279.36 307.21 C 280.74 305.08 278.11 303.18 276.12 304.23 M 536.20 304.24 C 533.46 306.20 537.55 309.83 539.29 307.17 C 540.85 305.20 538.09 303.12 536.20 304.24 Z" />
<path fill="#ffffff" opacity="1.00" d=" M 61.38 281.97 C 64.22 282.11 67.36 281.40 69.88 283.11 C 71.59 285.13 70.82 287.82 70.11 290.08 C 67.33 291.18 64.32 291.06 61.38 291.04 C 61.38 288.01 61.38 284.99 61.38 281.97 Z" />
<path fill="#ffffff" opacity="1.00" d=" M 166.38 281.97 C 169.45 282.14 172.99 281.30 175.59 283.41 C 177.28 285.24 176.69 287.95 176.32 290.17 C 175.44 290.77 174.56 291.39 173.68 292.00 C 171.25 292.01 168.81 292.01 166.38 292.02 C 166.38 288.67 166.38 285.32 166.38 281.97 Z" />
<path fill="#ffffff" opacity="1.00" d=" M 305.38 281.97 C 308.22 282.11 311.36 281.39 313.87 283.11 C 315.60 285.12 314.82 287.82 314.12 290.08 C 311.32 291.18 308.32 291.06 305.38 291.04 C 305.38 288.01 305.38 284.99 305.38 281.97 Z" />
<path fill="#ffffff" opacity="1.00" d=" M 410.38 281.97 C 413.46 282.13 417.01 281.31 419.61 283.43 C 421.27 285.27 420.69 287.95 420.33 290.16 C 419.44 290.77 418.56 291.38 417.68 292.00 C 415.24 292.01 412.81 292.01 410.38 292.02 C 410.38 288.67 410.38 285.32 410.38 281.97 Z" />
<path fill="#ffffff" opacity="1.00" d=" M 218.96 284.33 C 220.46 288.87 221.84 293.45 223.31 298.01 C 220.41 298.01 217.51 298.01 214.61 298.02 C 216.05 293.45 217.47 288.88 218.96 284.33 Z" />
<path fill="#ffffff" opacity="1.00" d=" M 61.38 293.99 C 63.88 293.99 66.37 293.99 68.87 293.94 C 72.09 295.69 72.07 299.72 71.09 302.82 C 68.80 305.88 64.65 304.86 61.38 305.03 C 61.38 301.35 61.38 297.67 61.38 293.99 Z" />
<path fill="#ffffff" opacity="1.00" d=" M 305.38 293.99 C 307.87 293.99 310.37 293.99 312.87 293.94 C 316.06 295.68 316.06 299.64 315.13 302.73 C 312.90 305.90 308.66 304.86 305.38 305.03 C 305.38 301.35 305.38 297.67 305.38 293.99 Z" />
</g>
<g id="#171a18ff">
<path fill="#171a18" opacity="1.00" d=" M 113.15 14.64 C 135.96 5.64 161.95 5.17 185.12 13.14 C 213.42 22.75 237.17 45.01 248.37 72.75 C 256.73 92.86 258.35 115.62 253.36 136.79 C 247.98 159.92 234.25 180.86 215.53 195.41 C 200.18 207.39 181.43 215.00 162.04 216.90 C 143.10 219.04 123.59 215.60 106.36 207.47 C 83.28 196.64 64.42 177.11 54.46 153.63 C 44.86 131.39 43.47 105.75 50.43 82.57 C 51.06 80.69 51.38 78.65 50.19 76.91 C 50.07 76.26 49.83 74.96 49.71 74.32 C 59.73 82.90 68.25 93.01 77.83 102.03 C 87.98 112.29 98.25 122.42 108.40 132.68 C 114.37 139.11 123.17 142.97 131.97 142.66 C 144.31 142.57 156.66 142.70 169.00 142.60 C 173.26 142.61 177.16 139.68 178.94 135.91 C 180.40 131.43 179.91 126.61 180.01 121.97 C 180.26 114.66 179.24 107.37 179.94 100.07 C 179.80 93.59 180.03 86.79 177.07 80.83 C 175.03 75.63 170.51 72.14 166.63 68.38 C 148.67 50.59 131.11 32.42 113.15 14.64 Z" />
<path fill="#171a18" opacity="1.00" d=" M 146.49 102.77 C 153.41 99.77 162.14 105.48 162.02 113.03 C 162.62 119.19 157.04 124.96 150.94 124.98 C 144.95 125.32 139.29 120.05 139.15 114.07 C 138.78 109.24 142.05 104.53 146.49 102.77 Z" />
<path fill="#171a18" opacity="1.00" d=" M 57.82 279.13 C 62.65 279.37 68.19 277.78 72.49 280.59 C 75.74 283.82 74.92 289.57 71.57 292.45 C 77.45 295.70 76.29 307.24 69.06 307.88 C 65.32 308.17 61.56 307.98 57.82 307.87 C 57.76 298.29 57.76 288.71 57.82 279.13 M 61.38 281.97 C 61.38 284.99 61.38 288.01 61.38 291.04 C 64.32 291.06 67.33 291.18 70.11 290.08 C 70.82 287.82 71.59 285.13 69.88 283.11 C 67.36 281.40 64.22 282.11 61.38 281.97 M 61.38 293.99 C 61.38 297.67 61.38 301.35 61.38 305.03 C 64.65 304.86 68.80 305.88 71.09 302.82 C 72.07 299.72 72.09 295.69 68.87 293.94 C 66.37 293.99 63.88 293.99 61.38 293.99 Z" />
<path fill="#171a18" opacity="1.00" d=" M 79.82 279.12 C 85.44 278.94 91.08 278.95 96.70 279.10 C 96.72 279.79 96.76 281.17 96.78 281.86 C 92.31 282.08 87.85 281.98 83.38 281.98 C 83.38 285.32 83.38 288.65 83.38 292.00 C 85.83 292.36 89.07 291.06 90.92 292.99 C 90.34 296.52 85.89 294.47 83.38 295.01 C 83.38 298.35 83.38 301.68 83.38 305.02 C 87.83 305.02 92.29 304.94 96.74 305.11 C 96.73 305.81 96.72 307.20 96.72 307.89 C 91.09 308.05 85.45 308.06 79.82 307.88 C 79.76 298.29 79.76 288.70 79.82 279.12 Z" />
<path fill="#171a18" opacity="1.00" d=" M 98.53 279.02 C 104.70 279.03 110.88 278.93 117.05 279.10 C 117.06 279.80 117.07 281.20 117.07 281.90 C 114.58 281.98 112.08 281.99 109.59 282.00 C 109.59 289.33 109.57 296.66 109.61 303.99 C 109.44 305.24 109.92 306.78 109.04 307.84 C 108.34 307.87 106.93 307.92 106.23 307.95 C 105.95 299.30 106.18 290.64 106.10 281.98 C 103.62 281.98 101.13 281.99 98.65 281.98 C 98.62 281.24 98.56 279.76 98.53 279.02 Z" />
<path fill="#171a18" opacity="1.00" d=" M 119.40 279.01 C 125.62 279.05 131.84 278.93 138.06 279.10 C 138.06 279.80 138.06 281.20 138.06 281.90 C 135.57 281.98 133.08 281.99 130.59 282.00 C 130.52 290.22 130.71 298.45 130.52 306.68 C 130.62 308.52 128.34 307.73 127.24 307.96 C 126.95 299.31 127.18 290.65 127.10 282.00 C 124.66 282.00 122.21 282.07 119.76 281.90 C 119.67 281.18 119.49 279.73 119.40 279.01 Z" />
<path fill="#171a18" opacity="1.00" d=" M 141.82 279.12 C 147.47 278.96 153.12 278.91 158.77 279.14 C 158.75 279.83 158.72 281.21 158.70 281.90 C 154.26 282.05 149.82 281.97 145.38 281.99 C 145.38 285.32 145.38 288.65 145.38 291.99 C 147.80 292.39 151.17 290.99 152.90 293.04 C 152.30 296.52 147.87 294.47 145.38 295.01 C 145.38 298.34 145.38 301.68 145.38 305.01 C 149.84 305.02 154.30 304.92 158.76 305.14 C 158.75 305.82 158.73 307.20 158.72 307.89 C 153.09 308.06 147.45 308.05 141.82 307.88 C 141.76 298.29 141.76 288.71 141.82 279.12 Z" />
<path fill="#171a18" opacity="1.00" d=" M 162.82 279.13 C 167.70 279.33 173.20 277.84 177.60 280.56 C 182.49 284.39 180.74 293.42 174.48 294.80 C 176.65 298.69 178.65 302.67 180.77 306.60 C 179.79 307.44 178.69 308.68 177.36 307.61 C 174.96 303.53 172.91 299.24 170.80 294.99 C 169.32 294.98 167.85 294.98 166.38 294.98 C 166.36 299.30 166.49 303.63 166.22 307.95 C 165.07 307.89 163.93 307.82 162.79 307.75 C 162.80 298.21 162.74 288.66 162.82 279.13 M 166.38 281.97 C 166.38 285.32 166.38 288.67 166.38 292.02 C 168.81 292.01 171.25 292.01 173.68 292.00 C 174.56 291.39 175.44 290.77 176.32 290.17 C 176.69 287.95 177.28 285.24 175.59 283.41 C 172.99 281.30 169.45 282.14 166.38 281.97 Z" />
<path fill="#171a18" opacity="1.00" d=" M 191.39 279.01 C 197.67 279.06 203.96 278.91 210.23 279.11 C 210.15 279.80 209.97 281.16 209.88 281.84 C 207.45 282.09 205.02 282.00 202.59 282.01 C 202.53 290.23 202.69 298.45 202.53 306.67 C 202.67 308.47 200.29 307.72 199.23 307.96 C 198.95 299.31 199.17 290.65 199.10 281.99 C 196.66 282.00 194.21 282.07 191.77 281.90 C 191.67 281.18 191.49 279.73 191.39 279.01 Z" />
<path fill="#171a18" opacity="1.00" d=" M 216.63 280.85 C 216.80 278.31 221.02 278.24 221.33 280.78 C 223.99 289.51 226.97 298.16 229.35 306.98 C 228.46 307.70 227.44 308.12 226.29 308.24 C 225.51 305.83 224.82 303.41 224.10 300.99 C 220.67 300.98 217.24 300.99 213.81 300.99 C 213.11 303.39 212.46 305.82 211.72 308.21 C 210.58 307.93 209.45 307.63 208.33 307.29 C 211.07 298.47 213.83 289.65 216.63 280.85 M 218.96 284.33 C 217.47 288.88 216.05 293.45 214.61 298.02 C 217.51 298.01 220.41 298.01 223.31 298.01 C 221.84 293.45 220.46 288.87 218.96 284.33 Z" />
<path fill="#171a18" opacity="1.00" d=" M 234.62 282.51 C 238.59 276.29 251.24 278.27 251.03 286.50 C 250.53 286.86 249.53 287.56 249.02 287.92 C 248.67 287.64 247.96 287.09 247.60 286.82 C 247.36 282.88 242.84 280.69 239.50 282.62 C 237.03 283.68 236.92 286.73 236.89 289.03 C 236.98 293.05 236.61 297.12 237.16 301.11 C 237.62 305.01 243.10 306.28 245.76 303.74 C 248.10 301.47 247.09 297.93 247.31 295.04 C 245.21 294.98 239.67 295.83 241.97 292.19 C 244.87 291.81 247.80 292.01 250.71 292.14 C 250.77 295.59 251.07 299.07 250.55 302.50 C 248.83 308.80 239.60 309.82 235.40 305.53 C 232.68 302.35 233.55 297.87 233.40 294.03 C 233.59 290.19 232.75 286.06 234.62 282.51 Z" />
<path fill="#171a18" opacity="1.00" d=" M 258.33 280.19 C 262.42 278.14 267.47 278.71 271.39 280.92 C 270.88 281.84 270.33 282.74 269.77 283.62 C 267.01 282.52 263.93 281.15 260.97 282.44 C 258.15 283.17 257.63 287.45 259.98 289.02 C 263.19 291.28 267.73 291.49 270.23 294.81 C 272.89 298.68 271.99 305.35 267.27 307.20 C 262.78 309.05 256.97 308.04 253.92 304.06 C 254.23 303.44 254.86 302.22 255.17 301.60 C 258.11 303.33 261.25 306.21 264.93 304.66 C 268.50 303.77 269.25 298.74 266.60 296.46 C 264.03 294.42 260.66 293.85 257.92 292.13 C 253.82 289.56 253.94 282.38 258.33 280.19 Z" />
<path fill="#171a18" opacity="1.00" d=" M 301.82 279.13 C 306.05 279.10 310.39 278.54 314.56 279.52 C 319.87 281.43 319.51 289.27 315.57 292.45 C 321.44 295.69 320.30 307.22 313.08 307.88 C 309.33 308.17 305.57 307.98 301.82 307.87 C 301.76 298.29 301.76 288.71 301.82 279.13 M 305.38 281.97 C 305.38 284.99 305.38 288.01 305.38 291.04 C 308.32 291.06 311.32 291.18 314.12 290.08 C 314.82 287.82 315.60 285.12 313.87 283.11 C 311.36 281.39 308.22 282.11 305.38 281.97 M 305.38 293.99 C 305.38 297.67 305.38 301.35 305.38 305.03 C 308.66 304.86 312.90 305.90 315.13 302.73 C 316.06 299.64 316.06 295.68 312.87 293.94 C 310.37 293.99 307.87 293.99 305.38 293.99 Z" />
<path fill="#171a18" opacity="1.00" d=" M 323.82 279.12 C 329.47 278.96 335.13 278.90 340.78 279.15 C 340.76 279.83 340.72 281.21 340.70 281.90 C 336.26 282.05 331.82 281.98 327.38 281.98 C 327.38 285.32 327.38 288.65 327.38 291.99 C 329.82 292.37 333.09 291.04 334.92 293.00 C 334.33 296.52 329.88 294.47 327.38 295.01 C 327.38 298.35 327.38 301.68 327.38 305.02 C 331.85 305.02 336.33 304.90 340.79 305.16 C 340.77 305.84 340.72 307.21 340.70 307.90 C 335.07 308.05 329.44 308.06 323.82 307.88 C 323.76 298.29 323.76 288.70 323.82 279.12 Z" />
<path fill="#171a18" opacity="1.00" d=" M 342.52 279.03 C 348.69 279.03 354.88 278.94 361.05 279.10 C 361.06 279.80 361.06 281.20 361.07 281.90 C 358.57 281.98 356.08 281.99 353.59 282.00 C 353.53 290.22 353.69 298.44 353.53 306.66 C 353.67 308.45 351.30 307.73 350.25 307.98 C 349.93 299.32 350.18 290.65 350.10 281.98 C 347.62 281.99 345.14 281.99 342.66 282.00 C 342.62 281.26 342.55 279.77 342.52 279.03 Z" />
<path fill="#171a18" opacity="1.00" d=" M 362.51 279.04 C 368.65 279.01 374.80 278.96 380.95 279.08 C 380.98 279.78 381.04 281.20 381.07 281.90 C 378.57 281.98 376.08 281.99 373.59 282.00 C 373.53 290.23 373.70 298.46 373.53 306.69 C 373.62 308.48 371.32 307.73 370.25 307.98 C 369.93 299.32 370.18 290.65 370.10 281.98 C 367.62 281.98 365.14 281.99 362.66 282.00 C 362.62 281.26 362.55 279.78 362.51 279.04 Z" />
<path fill="#171a18" opacity="1.00" d=" M 384.82 279.12 C 390.45 278.95 396.09 278.94 401.73 279.11 C 401.73 279.80 401.74 281.19 401.75 281.88 C 397.29 282.07 392.83 281.98 388.38 281.98 C 388.38 285.32 388.38 288.65 388.38 291.99 C 390.69 291.99 393.02 291.92 395.34 292.10 C 397.03 296.43 390.79 294.68 388.38 295.00 C 388.38 298.34 388.38 301.68 388.38 305.02 C 392.84 305.02 397.30 304.92 401.76 305.14 C 401.75 305.82 401.74 307.19 401.73 307.88 C 396.10 308.07 390.45 308.05 384.82 307.88 C 384.76 298.29 384.76 288.71 384.82 279.12 Z" />
<path fill="#171a18" opacity="1.00" d=" M 406.82 279.13 C 411.69 279.33 417.17 277.85 421.57 280.53 C 426.49 284.35 424.75 293.41 418.48 294.80 C 420.39 298.28 422.27 301.78 424.08 305.32 C 425.70 306.85 422.31 309.29 421.36 307.48 C 418.87 303.50 416.92 299.19 414.80 294.99 C 413.32 294.98 411.85 294.98 410.38 294.98 C 410.36 299.29 410.48 303.60 410.24 307.90 C 409.38 307.89 407.67 307.85 406.81 307.83 C 406.77 298.26 406.75 288.69 406.82 279.13 M 410.38 281.97 C 410.38 285.32 410.38 288.67 410.38 292.02 C 412.81 292.01 415.24 292.01 417.68 292.00 C 418.56 291.38 419.44 290.77 420.33 290.16 C 420.69 287.95 421.27 285.27 419.61 283.43 C 417.01 281.31 413.46 282.13 410.38 281.97 Z" />
<path fill="#171a18" opacity="1.00" d=" M 436.96 279.00 C 438.24 279.22 440.05 278.72 440.72 280.24 C 443.23 284.34 445.21 288.74 447.50 292.96 C 449.80 288.74 451.83 284.36 454.31 280.24 C 454.98 278.82 456.81 279.20 458.05 278.80 C 458.58 288.43 458.59 298.16 458.09 307.78 C 457.27 307.82 455.64 307.91 454.82 307.96 C 454.74 300.69 454.80 293.42 454.78 286.15 C 452.73 290.10 450.80 294.13 448.36 297.86 C 447.98 297.92 447.23 298.05 446.85 298.11 C 444.32 294.33 442.38 290.18 440.32 286.14 C 440.27 293.34 440.70 300.59 440.12 307.77 C 439.30 307.82 437.65 307.92 436.82 307.97 C 436.83 298.31 436.59 288.65 436.96 279.00 Z" />
<path fill="#171a18" opacity="1.00" d=" M 464.81 279.17 C 465.67 279.15 467.38 279.12 468.24 279.10 C 468.50 288.09 468.39 297.10 468.33 306.10 C 468.81 308.59 466.33 307.75 464.79 307.84 C 464.79 298.28 464.75 288.73 464.81 279.17 Z" />
<path fill="#171a18" opacity="1.00" d=" M 472.61 280.06 C 473.47 279.14 474.51 278.82 475.72 279.10 C 478.10 282.82 479.87 286.89 482.13 290.69 C 484.11 287.11 485.83 283.38 487.95 279.87 C 488.69 278.22 491.34 278.89 491.43 280.63 C 489.25 285.09 486.57 289.28 484.35 293.72 C 486.87 297.98 489.26 302.30 491.78 306.56 C 490.81 307.35 489.72 308.67 488.40 307.63 C 486.13 304.34 484.67 300.57 482.49 297.24 C 482.28 297.25 481.88 297.27 481.68 297.28 C 479.45 300.85 477.67 304.68 475.48 308.28 C 474.43 307.87 473.39 307.45 472.36 307.03 C 474.57 302.43 477.26 298.09 479.85 293.70 C 477.50 289.12 474.60 284.81 472.61 280.06 Z" />
<path fill="#171a18" opacity="1.00" d=" M 494.82 279.12 C 500.46 278.95 506.10 278.93 511.74 279.12 C 511.74 279.81 511.74 281.19 511.74 281.88 C 507.29 282.07 502.83 281.98 498.38 281.98 C 498.38 285.33 498.38 288.67 498.38 292.02 C 500.81 292.01 503.24 292.00 505.68 292.00 C 505.55 292.72 505.29 294.18 505.17 294.91 C 502.90 295.07 500.64 295.00 498.38 295.00 C 498.38 298.34 498.38 301.67 498.38 305.01 C 502.82 305.02 507.27 304.94 511.72 305.11 C 511.73 305.80 511.75 307.17 511.76 307.86 C 506.12 308.09 500.46 308.04 494.82 307.88 C 494.76 298.29 494.76 288.70 494.82 279.12 Z" />
<path fill="#171a18" opacity="1.00" d=" M 518.36 280.17 C 522.40 278.17 527.39 278.71 531.28 280.86 C 530.79 281.81 530.33 282.77 529.90 283.74 C 527.02 282.33 523.56 281.09 520.47 282.65 C 518.02 283.68 517.82 287.59 519.98 289.03 C 523.21 291.29 527.76 291.50 530.26 294.84 C 532.88 298.72 531.98 305.35 527.27 307.19 C 522.65 309.12 516.76 307.93 513.69 303.84 C 514.46 303.11 515.19 301.22 516.51 302.29 C 518.86 304.12 521.82 305.97 524.91 304.67 C 528.25 303.83 529.21 299.34 527.02 296.89 C 523.87 293.71 518.38 293.96 515.87 290.00 C 514.14 286.79 514.81 281.87 518.36 280.17 Z" />
<path fill="#171a18" opacity="1.00" d=" M 276.12 304.23 C 278.11 303.18 280.74 305.08 279.36 307.21 C 277.38 309.69 273.64 306.36 276.12 304.23 Z" />
<path fill="#171a18" opacity="1.00" d=" M 536.20 304.24 C 538.09 303.12 540.85 305.20 539.29 307.17 C 537.55 309.83 533.46 306.20 536.20 304.24 Z" />
</g>
</svg>
