<?xml version="1.0" encoding="utf-8"?>
<!-- Generator: Adobe Illustrator 16.0.0, SVG Export Plug-In . SVG Version: 6.00 Build 0)  -->
<!DOCTYPE svg PUBLIC "-//W3C//DTD SVG 1.1//EN" "http://www.w3.org/Graphics/SVG/1.1/DTD/svg11.dtd">
<svg version="1.1" id="Layer_1" xmlns="http://www.w3.org/2000/svg" xmlns:xlink="http://www.w3.org/1999/xlink" x="0px" y="0px"
	 width="587px" height="319px" viewBox="0 0 587 319" enable-background="new 0 0 587 319" xml:space="preserve">
<g>
	<g>
		<g>
			<g>
				<g>
					<path fill="#FFFFFF" d="M107.42,9.29c23.45-9.54,50.08-11.01,74.4-3.96c25.25,7.26,47.68,23.72,62.19,45.62
						c12.52,18.62,19.13,41.12,18.77,63.55c-0.1,25.3-9.26,50.42-25.35,69.931c-15.73,19.27-38.02,33.119-62.34,38.449
						c-22.81,5.07-47.23,3.021-68.74-6.21c-27.01-11.33-49.08-33.73-60.1-60.86c-10.59-25.93-11.2-55.97-1.06-82.13
						c1.55,0.97,3.1,1.94,4.72,2.8c1.03,6.34-1.86,12.3-2.8,18.45c-3.31,19.34-1.29,39.65,6.26,57.8
						c10.29,25.29,30.86,46.17,56,56.831c21.78,9.359,46.77,11.02,69.59,4.55c24.73-6.8,46.57-23.2,60.33-44.811
						c10.83-16.8,16.57-36.82,16.36-56.8c0.04-19.9-5.9-39.75-16.75-56.42c-15.5-24.06-41.17-41.38-69.4-46.39
						c-18.85-3.31-38.79-1.83-56.56,5.49c7.96,8.65,16.62,16.63,24.8,25.08c8.63,9.04,17.55,17.79,26.38,26.62
						c4.3,4.37,9.5,8.17,12.18,13.85c3.26,6.41,3.13,13.8,3.06,20.81c-0.5,10.62,0.9,21.3-0.23,31.9
						c-0.45,5.35-5.44,9.59-10.73,9.63c-9.62,0.29-19.26-0.08-28.9,0.08c-7.06,0.01-14.49,0.61-21.05-2.54
						c-6.79-2.73-11.51-8.49-16.56-13.49c-10.51-10.49-20.95-21.06-31.56-31.45c-6.55-7.03-13.29-13.9-20.51-20.25
						c-2.92-2.83-5.98-5.65-7.99-9.22c-2.24-4.5-0.9-10.23,2.83-13.52C59.36,38.03,74.04,23.36,88.68,8.66
						c2.3-2.39,5.43-4.13,8.83-3.97C101.39,4.48,104.56,7.01,107.42,9.29z M146.89,102.97c-4.89,1.42-8.56,6.38-8.25,11.5
						c0.1,6.38,6.43,11.86,12.77,10.94c6.48-0.59,11.47-7.38,9.92-13.76C160.21,105.3,153.05,100.98,146.89,102.97z"/>
				</g>
				<g>
					<path fill="#FFFFFF" d="M300.88,90.09c5-1.09,10.351-0.86,15.14,1.04c8.131,3.09,14.3,10.76,15.561,19.37
						c1.54,9.07-2.34,18.89-9.88,24.22c-8.69,6.58-21.61,6.48-30.21-0.2c-8.12-6.07-11.84-17.32-8.86-27.03
						C284.94,98.93,292.25,92.04,300.88,90.09z M304.85,102.76c-8.16,1.08-12.66,12.11-6.97,18.33c4.76,6.61,15.92,5.26,19.149-2.16
						C321.319,111.14,313.51,100.84,304.85,102.76z"/>
				</g>
				<g>
					<path fill="#FFFFFF" d="M37.51,243.51c170.99-0.01,341.99-0.01,512.98,0c0.01,20.99,0.02,41.99,0,62.98
						c-170.99,0.01-341.99,0.02-512.98,0C37.49,285.5,37.49,264.5,37.51,243.51z"/>
				</g>
				<path fill="#171A18" d="M105.24,284.36c-2.13,0.26-4.29,0.14-6.43,0.12"/>
			</g>
			<g>
				<path fill="#171A18" d="M112.94,15.18c17.77-7.32,37.71-8.8,56.56-5.49c28.23,5.01,53.9,22.33,69.4,46.39
					c10.85,16.67,16.79,36.52,16.75,56.42c0.21,19.98-5.53,40-16.36,56.8c-13.76,21.61-35.6,38.011-60.33,44.811
					c-22.82,6.47-47.81,4.81-69.59-4.55c-25.14-10.66-45.71-31.541-56-56.831c-7.55-18.15-9.57-38.46-6.26-57.8
					c0.94-6.15,3.83-12.11,2.8-18.45l-0.089-1.06c7.22,6.35,13.959,13.22,20.51,20.25c10.61,10.39,21.05,20.96,31.56,31.45
					c5.05,5,9.77,10.76,16.56,13.49c6.56,3.15,13.99,2.55,21.05,2.54c9.64-0.16,19.28,0.21,28.9-0.08
					c5.29-0.04,10.28-4.28,10.73-9.63c1.13-10.6-0.27-21.28,0.23-31.9c0.07-7.01,0.2-14.4-3.06-20.81
					c-2.68-5.68-7.88-9.48-12.18-13.85c-8.83-8.83-17.75-17.58-26.38-26.62C129.56,31.81,120.9,23.83,112.94,15.18z"/>
				<path fill="#171A18" d="M146.89,102.97c6.16-1.99,13.32,2.33,14.44,8.68c1.55,6.38-3.44,13.17-9.92,13.76
					c-6.34,0.92-12.67-4.56-12.77-10.94C138.33,109.35,142,104.39,146.89,102.97z"/>
				<path fill="#171A18" d="M278.66,283.47"/>
				<path fill="#171A18" d="M496.689,283.53"/>
			</g>
			<g>
				<path d="M95.815,288c-0.397,0-0.717-0.099-0.962-0.298c-0.245-0.197-0.368-0.438-0.368-0.717v-23.521
					c0-0.35,0.14-0.612,0.42-0.787c0.28-0.176,0.583-0.263,0.91-0.263h6.02c1.283,0,2.468,0.157,3.553,0.473
					c1.085,0.314,1.948,0.904,2.59,1.768c0.642,0.863,0.962,2.112,0.962,3.745c0,1.47-0.269,2.694-0.805,3.675
					s-1.26,1.669-2.17,2.064c0.723,0.28,1.353,0.659,1.89,1.138c0.537,0.479,0.957,1.097,1.26,1.854
					c0.303,0.759,0.455,1.745,0.455,2.958v0.63c0,1.798-0.303,3.226-0.91,4.287c-0.607,1.063-1.435,1.827-2.485,2.293
					c-1.05,0.468-2.229,0.7-3.535,0.7H95.815z M97.425,272.915h4.375c1.447,0,2.508-0.32,3.185-0.963
					c0.677-0.642,1.015-1.685,1.015-3.133c0-0.956-0.181-1.709-0.542-2.257c-0.362-0.548-0.864-0.933-1.505-1.155
					c-0.642-0.222-1.395-0.332-2.258-0.332h-4.27V272.915z M97.425,285.34h4.725c1.423,0,2.525-0.385,3.308-1.154
					c0.781-0.771,1.172-1.983,1.172-3.641v-0.595c0-1.681-0.391-2.864-1.172-3.553c-0.782-0.688-1.885-1.032-3.308-1.032h-4.725
					V285.34z"/>
				<path d="M114.89,288c-0.327,0-0.63-0.087-0.91-0.263c-0.28-0.175-0.42-0.438-0.42-0.787v-23.485c0-0.35,0.14-0.612,0.42-0.787
					c0.28-0.176,0.583-0.263,0.91-0.263h12.46c0.373,0,0.636,0.141,0.788,0.42c0.151,0.28,0.228,0.572,0.228,0.875
					c0,0.351-0.087,0.665-0.263,0.945c-0.175,0.28-0.426,0.42-0.752,0.42H116.5v8.89h5.46c0.327,0,0.578,0.129,0.753,0.386
					c0.175,0.256,0.262,0.548,0.262,0.875c0,0.279-0.076,0.548-0.228,0.805s-0.415,0.385-0.788,0.385h-5.46v8.925h10.85
					c0.327,0,0.578,0.135,0.752,0.403c0.175,0.268,0.263,0.589,0.263,0.962c0,0.303-0.076,0.595-0.228,0.875
					c-0.152,0.28-0.415,0.42-0.788,0.42H114.89z"/>
				<path d="M137.64,288c-0.374,0-0.712-0.087-1.015-0.263c-0.304-0.175-0.455-0.438-0.455-0.787v-21.806h-5.67
					c-0.304,0-0.548-0.14-0.735-0.419c-0.187-0.281-0.28-0.606-0.28-0.98c0-0.326,0.082-0.63,0.245-0.91
					c0.163-0.279,0.42-0.42,0.77-0.42h14.28c0.35,0,0.606,0.141,0.77,0.42c0.163,0.28,0.245,0.584,0.245,0.91
					c0,0.35-0.082,0.671-0.245,0.962c-0.164,0.292-0.42,0.438-0.77,0.438h-5.67v21.806c0,0.35-0.152,0.612-0.455,0.787
					C138.351,287.913,138.012,288,137.64,288z"/>
				<path d="M154.79,288c-0.374,0-0.712-0.087-1.015-0.263c-0.304-0.175-0.455-0.438-0.455-0.787v-21.806h-5.67
					c-0.304,0-0.548-0.14-0.735-0.419c-0.187-0.281-0.28-0.606-0.28-0.98c0-0.326,0.082-0.63,0.245-0.91
					c0.163-0.279,0.42-0.42,0.77-0.42h14.28c0.35,0,0.606,0.141,0.77,0.42c0.163,0.28,0.245,0.584,0.245,0.91
					c0,0.35-0.082,0.671-0.245,0.962c-0.164,0.292-0.42,0.438-0.77,0.438h-5.67v21.806c0,0.35-0.152,0.612-0.455,0.787
					C155.501,287.913,155.162,288,154.79,288z"/>
				<path d="M167.179,288c-0.327,0-0.63-0.087-0.91-0.263c-0.28-0.175-0.42-0.438-0.42-0.787v-23.485c0-0.35,0.14-0.612,0.42-0.787
					c0.28-0.176,0.583-0.263,0.91-0.263h12.46c0.373,0,0.636,0.141,0.788,0.42c0.151,0.28,0.228,0.572,0.228,0.875
					c0,0.351-0.087,0.665-0.263,0.945c-0.175,0.28-0.426,0.42-0.752,0.42h-10.85v8.89h5.46c0.327,0,0.578,0.129,0.753,0.386
					c0.175,0.256,0.262,0.548,0.262,0.875c0,0.279-0.076,0.548-0.228,0.805s-0.415,0.385-0.788,0.385h-5.46v8.925h10.85
					c0.327,0,0.578,0.135,0.752,0.403c0.175,0.268,0.263,0.589,0.263,0.962c0,0.303-0.076,0.595-0.228,0.875
					c-0.152,0.28-0.415,0.42-0.788,0.42H167.179z"/>
				<path d="M197.418,288.069c-0.28,0-0.531-0.116-0.752-0.35c-0.222-0.233-0.415-0.501-0.578-0.805l-5.25-10.255h-4.06v10.29
					c0,0.35-0.152,0.612-0.455,0.787c-0.304,0.176-0.642,0.263-1.015,0.263c-0.35,0-0.683-0.087-0.998-0.263
					c-0.315-0.175-0.473-0.438-0.473-0.787v-23.52c0-0.28,0.099-0.514,0.298-0.7c0.198-0.187,0.449-0.292,0.752-0.315h6.405
					c1.423,0,2.724,0.216,3.902,0.647s2.118,1.155,2.818,2.17c0.7,1.016,1.05,2.41,1.05,4.183c0,1.424-0.228,2.603-0.683,3.535
					s-1.08,1.662-1.873,2.188c-0.793,0.525-1.68,0.893-2.66,1.103l5.18,9.835c0.047,0.094,0.082,0.181,0.105,0.263
					c0.023,0.081,0.035,0.157,0.035,0.227c0,0.258-0.087,0.503-0.262,0.735c-0.175,0.234-0.397,0.42-0.665,0.561
					C197.973,288,197.699,288.069,197.418,288.069z M186.778,274.21h4.515c1.447,0,2.613-0.35,3.5-1.05
					c0.887-0.7,1.33-1.878,1.33-3.535c0-1.656-0.443-2.829-1.33-3.518c-0.887-0.688-2.053-1.032-3.5-1.032h-4.515V274.21z"/>
				<path d="M215.793,288c-0.374,0-0.712-0.087-1.015-0.263c-0.304-0.175-0.455-0.438-0.455-0.787v-21.806h-5.67
					c-0.304,0-0.548-0.14-0.735-0.419c-0.187-0.281-0.28-0.606-0.28-0.98c0-0.326,0.082-0.63,0.245-0.91
					c0.163-0.279,0.42-0.42,0.77-0.42h14.28c0.35,0,0.606,0.141,0.77,0.42c0.163,0.28,0.245,0.584,0.245,0.91
					c0,0.35-0.082,0.671-0.245,0.962c-0.164,0.292-0.42,0.438-0.77,0.438h-5.67v21.806c0,0.35-0.152,0.612-0.455,0.787
					C216.505,287.913,216.166,288,215.793,288z"/>
				<path d="M224.683,288c-0.234,0-0.496-0.053-0.788-0.157c-0.292-0.105-0.525-0.251-0.7-0.438
					c-0.175-0.187-0.262-0.397-0.262-0.63c0-0.094,0.011-0.187,0.035-0.28l7.175-23.275c0.093-0.35,0.315-0.606,0.665-0.77
					c0.35-0.163,0.723-0.245,1.12-0.245c0.42,0,0.805,0.088,1.155,0.263s0.571,0.426,0.665,0.752l7.14,23.275
					c0.047,0.094,0.07,0.175,0.07,0.245c0,0.233-0.1,0.443-0.298,0.63s-0.438,0.339-0.717,0.455
					c-0.28,0.117-0.548,0.175-0.805,0.175s-0.479-0.053-0.665-0.157c-0.187-0.105-0.315-0.274-0.385-0.508l-1.575-5.215h-9.205
					l-1.505,5.215c-0.07,0.233-0.205,0.402-0.402,0.508C225.202,287.947,224.963,288,224.683,288z M228.008,279.705h7.84
					l-3.92-13.16L228.008,279.705z"/>
				<path d="M251.283,288.21c-1.424,0-2.701-0.25-3.833-0.753c-1.132-0.501-2.03-1.313-2.695-2.432
					c-0.665-1.12-0.997-2.603-0.997-4.445v-10.535c0-1.843,0.332-3.325,0.997-4.444c0.665-1.12,1.563-1.932,2.695-2.433
					c1.131-0.502,2.385-0.753,3.762-0.753c1.54,0,2.875,0.263,4.008,0.787c1.131,0.525,2.018,1.255,2.66,2.188
					c0.642,0.934,0.963,2.03,0.963,3.291c0,0.56-0.129,0.938-0.385,1.137c-0.257,0.198-0.619,0.298-1.085,0.298
					c-0.397,0-0.735-0.075-1.015-0.228c-0.28-0.152-0.432-0.414-0.455-0.787c-0.093-0.816-0.303-1.523-0.63-2.118
					c-0.327-0.595-0.817-1.062-1.47-1.4c-0.654-0.338-1.494-0.507-2.52-0.507c-1.447,0-2.573,0.402-3.377,1.207
					c-0.805,0.806-1.208,2.06-1.208,3.763v10.535c0,1.704,0.402,2.958,1.208,3.763c0.805,0.805,1.93,1.207,3.377,1.207
					c1.446,0,2.578-0.402,3.395-1.207c0.816-0.805,1.225-2.059,1.225-3.763v-3.57h-4.165c-0.327,0-0.578-0.128-0.753-0.385
					c-0.175-0.256-0.262-0.536-0.262-0.84s0.087-0.583,0.262-0.841c0.175-0.256,0.426-0.384,0.753-0.384h6.09
					c0.327,0,0.578,0.104,0.752,0.314s0.263,0.467,0.263,0.77v4.936c0,1.843-0.333,3.325-0.998,4.445
					c-0.665,1.119-1.57,1.931-2.712,2.432C253.989,287.96,252.706,288.21,251.283,288.21z"/>
				<path d="M269.272,288.28c-1.494,0-2.8-0.228-3.92-0.683c-1.12-0.455-1.983-0.991-2.59-1.61c-0.607-0.618-0.91-1.173-0.91-1.662
					c0-0.233,0.064-0.473,0.193-0.718c0.128-0.245,0.292-0.455,0.49-0.63s0.403-0.263,0.613-0.263c0.28,0,0.554,0.141,0.822,0.42
					c0.268,0.28,0.606,0.613,1.015,0.997c0.408,0.386,0.939,0.719,1.592,0.998c0.653,0.28,1.505,0.42,2.555,0.42
					c0.98,0,1.832-0.157,2.555-0.473c0.723-0.314,1.289-0.792,1.697-1.435c0.408-0.642,0.612-1.453,0.612-2.433
					c0-1.003-0.21-1.82-0.63-2.45s-0.975-1.154-1.663-1.574c-0.688-0.421-1.435-0.793-2.24-1.121
					c-0.805-0.326-1.622-0.658-2.45-0.997c-0.829-0.338-1.581-0.758-2.257-1.26c-0.677-0.501-1.225-1.148-1.645-1.942
					c-0.42-0.793-0.63-1.797-0.63-3.01c0-1.283,0.233-2.346,0.7-3.186s1.085-1.505,1.855-1.995c0.77-0.489,1.604-0.834,2.502-1.032
					c0.898-0.198,1.779-0.298,2.643-0.298c0.63,0,1.295,0.048,1.995,0.141s1.365,0.233,1.995,0.42s1.143,0.426,1.54,0.718
					c0.396,0.292,0.595,0.635,0.595,1.032c0,0.187-0.047,0.402-0.14,0.647c-0.094,0.245-0.234,0.467-0.42,0.665
					c-0.187,0.198-0.42,0.297-0.7,0.297c-0.257,0-0.572-0.11-0.945-0.332c-0.374-0.222-0.869-0.443-1.487-0.665
					c-0.619-0.222-1.43-0.332-2.433-0.332c-0.84,0-1.627,0.116-2.362,0.35s-1.318,0.618-1.75,1.154
					c-0.432,0.538-0.647,1.249-0.647,2.136c0,0.84,0.21,1.528,0.63,2.064c0.42,0.537,0.968,0.98,1.645,1.33
					c0.676,0.35,1.423,0.671,2.24,0.963c0.816,0.292,1.633,0.63,2.45,1.015c0.816,0.385,1.569,0.858,2.257,1.418
					c0.688,0.56,1.243,1.289,1.663,2.188s0.63,2.024,0.63,3.378c0,1.68-0.333,3.063-0.998,4.146
					c-0.665,1.086-1.57,1.891-2.713,2.416C272.084,288.018,270.765,288.28,269.272,288.28z"/>
				<path d="M281.382,288.21c-0.537,0-0.98-0.188-1.33-0.561c-0.35-0.372-0.525-0.793-0.525-1.26c0-0.513,0.175-0.95,0.525-1.313
					c0.35-0.361,0.793-0.542,1.33-0.542c0.466,0,0.88,0.181,1.242,0.542c0.361,0.362,0.542,0.8,0.542,1.313
					c0,0.467-0.181,0.888-0.542,1.26C282.263,288.022,281.849,288.21,281.382,288.21z"/>
				<path d="M302.242,288c-0.397,0-0.718-0.099-0.963-0.298c-0.245-0.197-0.368-0.438-0.368-0.717v-23.521
					c0-0.35,0.141-0.612,0.42-0.787c0.28-0.176,0.584-0.263,0.911-0.263h6.02c1.283,0,2.468,0.157,3.553,0.473
					c1.085,0.314,1.947,0.904,2.59,1.768c0.642,0.863,0.963,2.112,0.963,3.745c0,1.47-0.27,2.694-0.806,3.675
					s-1.26,1.669-2.17,2.064c0.723,0.28,1.353,0.659,1.89,1.138s0.957,1.097,1.261,1.854c0.303,0.759,0.454,1.745,0.454,2.958v0.63
					c0,1.798-0.303,3.226-0.909,4.287c-0.607,1.063-1.435,1.827-2.485,2.293c-1.05,0.468-2.229,0.7-3.535,0.7H302.242z
					 M303.852,272.915h4.375c1.446,0,2.509-0.32,3.185-0.963c0.677-0.642,1.016-1.685,1.016-3.133c0-0.956-0.181-1.709-0.542-2.257
					c-0.362-0.548-0.864-0.933-1.506-1.155c-0.642-0.222-1.394-0.332-2.258-0.332h-4.27V272.915z M303.852,285.34h4.726
					c1.422,0,2.525-0.385,3.308-1.154c0.78-0.771,1.172-1.983,1.172-3.641v-0.595c0-1.681-0.392-2.864-1.172-3.553
					c-0.782-0.688-1.886-1.032-3.308-1.032h-4.726V285.34z"/>
				<path d="M321.316,288c-0.327,0-0.63-0.087-0.91-0.263c-0.279-0.175-0.42-0.438-0.42-0.787v-23.485
					c0-0.35,0.141-0.612,0.42-0.787c0.28-0.176,0.583-0.263,0.91-0.263h12.46c0.373,0,0.636,0.141,0.788,0.42
					c0.15,0.28,0.227,0.572,0.227,0.875c0,0.351-0.087,0.665-0.263,0.945c-0.175,0.28-0.425,0.42-0.752,0.42h-10.85v8.89h5.459
					c0.327,0,0.578,0.129,0.754,0.386c0.175,0.256,0.262,0.548,0.262,0.875c0,0.279-0.075,0.548-0.228,0.805
					c-0.151,0.257-0.414,0.385-0.788,0.385h-5.459v8.925h10.85c0.327,0,0.577,0.135,0.752,0.403
					c0.176,0.268,0.263,0.589,0.263,0.962c0,0.303-0.076,0.595-0.227,0.875c-0.152,0.28-0.415,0.42-0.788,0.42H321.316z"/>
				<path d="M344.066,288c-0.373,0-0.713-0.087-1.015-0.263c-0.304-0.175-0.456-0.438-0.456-0.787v-21.806h-5.669
					c-0.304,0-0.549-0.14-0.735-0.419c-0.188-0.281-0.28-0.606-0.28-0.98c0-0.326,0.082-0.63,0.245-0.91
					c0.163-0.279,0.42-0.42,0.771-0.42h14.279c0.351,0,0.606,0.141,0.771,0.42c0.163,0.28,0.244,0.584,0.244,0.91
					c0,0.35-0.081,0.671-0.244,0.962c-0.164,0.292-0.42,0.438-0.771,0.438h-5.67v21.806c0,0.35-0.151,0.612-0.455,0.787
					C344.777,287.913,344.439,288,344.066,288z"/>
				<path d="M361.216,288c-0.373,0-0.712-0.087-1.015-0.263c-0.304-0.175-0.455-0.438-0.455-0.787v-21.806h-5.67
					c-0.304,0-0.549-0.14-0.735-0.419c-0.187-0.281-0.28-0.606-0.28-0.98c0-0.326,0.082-0.63,0.246-0.91
					c0.162-0.279,0.42-0.42,0.77-0.42h14.28c0.35,0,0.606,0.141,0.77,0.42c0.163,0.28,0.245,0.584,0.245,0.91
					c0,0.35-0.082,0.671-0.245,0.962c-0.163,0.292-0.42,0.438-0.77,0.438h-5.671v21.806c0,0.35-0.151,0.612-0.454,0.787
					C361.928,287.913,361.589,288,361.216,288z"/>
				<path d="M373.605,288c-0.327,0-0.63-0.087-0.91-0.263c-0.28-0.175-0.42-0.438-0.42-0.787v-23.485c0-0.35,0.14-0.612,0.42-0.787
					c0.28-0.176,0.583-0.263,0.91-0.263h12.46c0.373,0,0.636,0.141,0.788,0.42c0.15,0.28,0.228,0.572,0.228,0.875
					c0,0.351-0.088,0.665-0.263,0.945s-0.426,0.42-0.753,0.42h-10.851v8.89h5.461c0.326,0,0.577,0.129,0.752,0.386
					c0.176,0.256,0.263,0.548,0.263,0.875c0,0.279-0.076,0.548-0.228,0.805c-0.152,0.257-0.415,0.385-0.787,0.385h-5.461v8.925
					h10.851c0.327,0,0.578,0.135,0.753,0.403c0.175,0.268,0.263,0.589,0.263,0.962c0,0.303-0.077,0.595-0.228,0.875
					c-0.152,0.28-0.415,0.42-0.788,0.42H373.605z"/>
				<path d="M403.845,288.069c-0.279,0-0.53-0.116-0.752-0.35c-0.223-0.233-0.415-0.501-0.578-0.805l-5.25-10.255h-4.06v10.29
					c0,0.35-0.152,0.612-0.455,0.787c-0.303,0.176-0.642,0.263-1.015,0.263c-0.35,0-0.683-0.087-0.997-0.263
					c-0.315-0.175-0.474-0.438-0.474-0.787v-23.52c0-0.28,0.1-0.514,0.299-0.7c0.197-0.187,0.448-0.292,0.752-0.315h6.404
					c1.424,0,2.725,0.216,3.903,0.647c1.178,0.432,2.117,1.155,2.817,2.17c0.699,1.016,1.05,2.41,1.05,4.183
					c0,1.424-0.228,2.603-0.683,3.535s-1.079,1.662-1.872,2.188c-0.794,0.525-1.68,0.893-2.66,1.103l5.18,9.835
					c0.047,0.094,0.081,0.181,0.105,0.263c0.022,0.081,0.034,0.157,0.034,0.227c0,0.258-0.087,0.503-0.262,0.735
					c-0.176,0.234-0.397,0.42-0.665,0.561C404.399,288,404.125,288.069,403.845,288.069z M393.205,274.21h4.515
					c1.447,0,2.613-0.35,3.5-1.05s1.331-1.878,1.331-3.535c0-1.656-0.444-2.829-1.331-3.518s-2.053-1.032-3.5-1.032h-4.515V274.21z"
					/>
				<path d="M417.6,288c-0.351,0-0.683-0.087-0.997-0.263c-0.315-0.175-0.474-0.438-0.474-0.787v-23.1
					c0-0.537,0.158-0.911,0.474-1.12c0.314-0.211,0.646-0.315,0.997-0.315c0.373,0,0.694,0.07,0.963,0.21
					c0.268,0.14,0.513,0.345,0.734,0.612c0.222,0.269,0.438,0.613,0.647,1.032l5.53,10.536l5.529-10.536
					c0.233-0.419,0.461-0.764,0.684-1.032c0.221-0.268,0.466-0.473,0.734-0.612c0.268-0.14,0.577-0.21,0.928-0.21
					c0.396,0,0.74,0.104,1.032,0.315c0.291,0.209,0.438,0.583,0.438,1.12v23.1c0,0.35-0.151,0.612-0.455,0.787
					c-0.304,0.176-0.642,0.263-1.015,0.263s-0.712-0.087-1.015-0.263c-0.304-0.175-0.456-0.438-0.456-0.787v-18.375l-5.319,9.939
					c-0.163,0.28-0.339,0.484-0.524,0.612c-0.188,0.129-0.386,0.192-0.596,0.192c-0.164,0-0.345-0.058-0.542-0.175
					c-0.199-0.116-0.38-0.326-0.543-0.63l-5.285-10.079v18.515c0,0.35-0.151,0.612-0.455,0.787
					C418.311,287.913,417.973,288,417.6,288z"/>
				<path d="M441.294,288c-0.35,0-0.683-0.087-0.997-0.263c-0.315-0.175-0.473-0.438-0.473-0.787v-23.52
					c0-0.351,0.157-0.607,0.473-0.771c0.314-0.163,0.647-0.245,0.997-0.245c0.374,0,0.712,0.082,1.016,0.245
					c0.303,0.163,0.455,0.42,0.455,0.771v23.52c0,0.35-0.152,0.612-0.455,0.787C442.006,287.913,441.668,288,441.294,288z"/>
				<path d="M447.804,288.069c-0.257,0-0.525-0.063-0.806-0.192c-0.279-0.128-0.519-0.303-0.717-0.524
					c-0.199-0.222-0.297-0.46-0.297-0.718c0-0.187,0.057-0.396,0.174-0.63l6.056-10.815l-5.915-10.745
					c-0.163-0.279-0.245-0.535-0.245-0.77c0-0.28,0.093-0.519,0.28-0.718c0.186-0.197,0.414-0.35,0.682-0.455
					c0.269-0.104,0.555-0.157,0.857-0.157c0.304,0,0.561,0.111,0.771,0.333s0.373,0.484,0.49,0.787l4.97,9.311l4.97-9.311
					c0.141-0.303,0.315-0.565,0.525-0.787s0.466-0.333,0.771-0.333c0.279,0,0.56,0.053,0.84,0.157
					c0.28,0.105,0.507,0.258,0.682,0.455c0.176,0.199,0.263,0.438,0.263,0.718c0,0.234-0.081,0.49-0.245,0.77l-5.914,10.745
					l6.055,10.815c0.116,0.233,0.175,0.443,0.175,0.63c0,0.258-0.093,0.496-0.28,0.718c-0.187,0.222-0.42,0.396-0.699,0.524
					c-0.28,0.129-0.561,0.192-0.841,0.192c-0.257,0-0.478-0.104-0.664-0.314c-0.188-0.21-0.339-0.432-0.456-0.665l-5.18-9.555
					l-5.145,9.555c-0.117,0.233-0.27,0.455-0.455,0.665C448.316,287.965,448.084,288.069,447.804,288.069z"/>
				<path d="M466.739,288c-0.328,0-0.63-0.087-0.911-0.263c-0.279-0.175-0.42-0.438-0.42-0.787v-23.485
					c0-0.35,0.141-0.612,0.42-0.787c0.281-0.176,0.583-0.263,0.911-0.263h12.459c0.374,0,0.636,0.141,0.788,0.42
					c0.151,0.28,0.228,0.572,0.228,0.875c0,0.351-0.087,0.665-0.263,0.945c-0.175,0.28-0.426,0.42-0.753,0.42h-10.85v8.89h5.46
					c0.327,0,0.577,0.129,0.753,0.386c0.175,0.256,0.262,0.548,0.262,0.875c0,0.279-0.075,0.548-0.228,0.805
					c-0.151,0.257-0.414,0.385-0.787,0.385h-5.46v8.925h10.85c0.327,0,0.578,0.135,0.753,0.403c0.176,0.268,0.263,0.589,0.263,0.962
					c0,0.303-0.076,0.595-0.228,0.875c-0.152,0.28-0.414,0.42-0.788,0.42H466.739z"/>
				<path d="M489.489,288.28c-1.494,0-2.801-0.228-3.921-0.683s-1.983-0.991-2.59-1.61c-0.607-0.618-0.91-1.173-0.91-1.662
					c0-0.233,0.063-0.473,0.192-0.718s0.292-0.455,0.49-0.63s0.402-0.263,0.613-0.263c0.279,0,0.554,0.141,0.821,0.42
					c0.269,0.28,0.607,0.613,1.016,0.997c0.408,0.386,0.938,0.719,1.593,0.998c0.653,0.28,1.504,0.42,2.555,0.42
					c0.979,0,1.831-0.157,2.555-0.473c0.724-0.314,1.289-0.792,1.698-1.435c0.408-0.642,0.611-1.453,0.611-2.433
					c0-1.003-0.21-1.82-0.629-2.45c-0.42-0.63-0.975-1.154-1.663-1.574c-0.688-0.421-1.436-0.793-2.239-1.121
					c-0.806-0.326-1.623-0.658-2.45-0.997c-0.829-0.338-1.581-0.758-2.258-1.26c-0.677-0.501-1.226-1.148-1.646-1.942
					c-0.42-0.793-0.63-1.797-0.63-3.01c0-1.283,0.233-2.346,0.7-3.186s1.085-1.505,1.854-1.995c0.771-0.489,1.604-0.834,2.503-1.032
					c0.897-0.198,1.779-0.298,2.643-0.298c0.63,0,1.295,0.048,1.995,0.141s1.365,0.233,1.995,0.42s1.143,0.426,1.54,0.718
					c0.396,0.292,0.595,0.635,0.595,1.032c0,0.187-0.047,0.402-0.14,0.647c-0.094,0.245-0.233,0.467-0.421,0.665
					c-0.187,0.198-0.419,0.297-0.699,0.297c-0.258,0-0.572-0.11-0.945-0.332c-0.374-0.222-0.869-0.443-1.487-0.665
					s-1.43-0.332-2.433-0.332c-0.84,0-1.627,0.116-2.362,0.35c-0.734,0.233-1.318,0.618-1.75,1.154
					c-0.432,0.538-0.647,1.249-0.647,2.136c0,0.84,0.21,1.528,0.63,2.064c0.42,0.537,0.968,0.98,1.646,1.33
					c0.676,0.35,1.422,0.671,2.239,0.963c0.816,0.292,1.633,0.63,2.45,1.015c0.816,0.385,1.569,0.858,2.257,1.418
					c0.688,0.56,1.243,1.289,1.663,2.188s0.63,2.024,0.63,3.378c0,1.68-0.332,3.063-0.997,4.146
					c-0.665,1.086-1.57,1.891-2.713,2.416C492.301,288.018,490.981,288.28,489.489,288.28z"/>
				<path d="M501.599,288.21c-0.537,0-0.98-0.188-1.33-0.561c-0.35-0.372-0.525-0.793-0.525-1.26c0-0.513,0.176-0.95,0.525-1.313
					c0.35-0.361,0.793-0.542,1.33-0.542c0.466,0,0.881,0.181,1.242,0.542c0.361,0.362,0.542,0.8,0.542,1.313
					c0,0.467-0.181,0.888-0.542,1.26C502.479,288.022,502.064,288.21,501.599,288.21z"/>
			</g>
			<g>
				<path fill="#FFFFFF" d="M346.17,139.64c-1.398,0-2.695-0.24-3.889-0.72c-1.193-0.48-1.791-1.177-1.791-2.092v-44.52
					c0-0.96,0.598-1.669,1.791-2.127c1.193-0.457,2.49-0.686,3.889-0.686c1.396,0,2.547,0.115,3.45,0.343
					c0.902,0.229,1.747,0.675,2.533,1.337c0.786,0.664,1.616,1.681,2.49,3.053l16.86,25.587V92.239c0-0.96,0.597-1.657,1.791-2.092
					c1.193-0.434,2.49-0.652,3.888-0.652c1.455,0,2.766,0.218,3.931,0.652c1.165,0.435,1.748,1.132,1.748,2.092v44.589
					c0,0.916-0.583,1.612-1.748,2.092c-1.165,0.48-2.476,0.72-3.931,0.72c-1.341,0-2.577-0.206-3.713-0.617
					s-2.053-1.143-2.752-2.195l-18.87-27.577v27.577c0,0.916-0.582,1.612-1.747,2.092C348.935,139.4,347.625,139.64,346.17,139.64z"
					/>
			</g>
			<g>
				<path fill="#FFFFFF" d="M396.471,139.64c-1.224,0-2.359-0.24-3.407-0.72c-1.048-0.48-1.573-1.177-1.573-2.092v-44.52
					c0-0.915,0.525-1.612,1.573-2.092c1.048-0.48,2.184-0.721,3.407-0.721h31.101c1.28,0,2.198,0.412,2.752,1.235
					c0.553,0.823,0.829,1.692,0.829,2.607c0,1.098-0.305,2.035-0.916,2.813c-0.612,0.778-1.501,1.166-2.665,1.166h-24.724v13.72
					h13.279c1.164,0,2.053,0.355,2.664,1.063c0.611,0.709,0.918,1.543,0.918,2.503c0,0.778-0.277,1.543-0.83,2.298
					c-0.555,0.754-1.472,1.132-2.752,1.132h-13.279v13.788h24.724c1.164,0,2.053,0.389,2.665,1.167
					c0.611,0.778,0.916,1.715,0.916,2.813c0,0.915-0.276,1.783-0.829,2.606c-0.554,0.823-1.472,1.235-2.752,1.235H396.471z"/>
			</g>
		</g>
		<path fill="#FFFFFF" d="M397.224,139.593c-1.201,0-2.316-0.241-3.346-0.723c-1.03-0.482-1.544-1.181-1.544-2.101V92.08
			c0-0.917,0.514-1.618,1.544-2.1c1.029-0.481,2.145-0.723,3.346-0.723h30.539c1.257,0,2.157,0.413,2.702,1.239
			c0.542,0.826,0.814,1.699,0.814,2.617c0,1.102-0.3,2.043-0.901,2.823c-0.6,0.781-1.473,1.171-2.615,1.171h-24.277v13.772h13.039
			c1.144,0,2.016,0.355,2.616,1.067c0.602,0.712,0.901,1.549,0.901,2.514c0,0.781-0.272,1.549-0.814,2.307
			c-0.545,0.757-1.445,1.136-2.703,1.136h-13.039v13.841h24.277c1.143,0,2.016,0.391,2.615,1.171
			c0.602,0.781,0.901,1.721,0.901,2.823c0,0.919-0.272,1.791-0.814,2.617c-0.545,0.826-1.445,1.239-2.702,1.239H397.224z"/>
	</g>
	<g>
		<path fill="#FFFFFF" d="M307.875,206.525c-0.902,0-1.719-0.177-2.451-0.531s-1.1-0.886-1.1-1.594v-44.133h-13.692
			c-0.733,0-1.325-0.284-1.775-0.85c-0.452-0.567-0.676-1.228-0.676-1.984c0-0.661,0.197-1.275,0.592-1.842
			c0.394-0.566,1.014-0.85,1.859-0.85h34.485c0.846,0,1.465,0.284,1.861,0.85c0.393,0.567,0.59,1.181,0.59,1.842
			c0,0.708-0.197,1.358-0.59,1.948c-0.396,0.591-1.016,0.886-1.861,0.886h-13.691V204.4c0,0.708-0.367,1.239-1.1,1.594
			S308.775,206.525,307.875,206.525z"/>
		<path fill="#FFFFFF" d="M329.344,206.525c-0.563,0-1.198-0.106-1.901-0.318c-0.706-0.213-1.269-0.508-1.69-0.886
			c-0.423-0.378-0.635-0.803-0.635-1.275c0-0.188,0.028-0.377,0.085-0.566l17.327-47.108c0.225-0.708,0.761-1.228,1.606-1.559
			c0.845-0.33,1.746-0.496,2.705-0.496c1.014,0,1.943,0.177,2.789,0.531c0.845,0.354,1.38,0.862,1.605,1.523l17.243,47.108
			c0.112,0.189,0.169,0.354,0.169,0.496c0,0.473-0.24,0.897-0.718,1.274c-0.479,0.379-1.057,0.686-1.733,0.921
			c-0.676,0.237-1.324,0.354-1.943,0.354c-0.621,0-1.156-0.106-1.606-0.318c-0.451-0.213-0.761-0.555-0.93-1.027l-3.804-10.556
			h-22.229l-3.635,10.556c-0.169,0.473-0.494,0.814-0.973,1.027C330.597,206.419,330.02,206.525,329.344,206.525z M337.374,189.736
			h18.934l-9.467-26.636L337.374,189.736z"/>
		<path fill="#FFFFFF" d="M393.581,206.95c-3.438,0-6.522-0.507-9.255-1.522c-2.734-1.016-4.902-2.657-6.509-4.924
			c-1.605-2.267-2.409-5.266-2.409-8.996v-21.323c0-3.729,0.804-6.729,2.409-8.996c1.606-2.267,3.774-3.907,6.509-4.923
			c2.732-1.015,5.761-1.523,9.086-1.523c3.72,0,6.944,0.531,9.679,1.594c2.732,1.063,4.873,2.539,6.424,4.428
			c1.549,1.889,2.324,4.108,2.324,6.658c0,1.134-0.311,1.901-0.93,2.303c-0.621,0.401-1.494,0.602-2.62,0.602
			c-0.959,0-1.775-0.152-2.451-0.46c-0.677-0.307-1.044-0.838-1.1-1.594c-0.226-1.652-0.732-3.082-1.521-4.286
			s-1.973-2.148-3.55-2.833c-1.578-0.685-3.606-1.028-6.086-1.028c-3.494,0-6.212,0.815-8.156,2.444
			c-1.944,1.63-2.916,4.169-2.916,7.615v21.323c0,3.447,0.972,5.985,2.916,7.615c1.944,1.629,4.662,2.443,8.156,2.443
			c3.493,0,6.227-0.814,8.199-2.443c1.972-1.63,2.958-4.168,2.958-7.615v-7.226h-10.058c-0.79,0-1.396-0.26-1.817-0.779
			c-0.423-0.52-0.634-1.086-0.634-1.7c0-0.613,0.211-1.18,0.634-1.7c0.422-0.52,1.027-0.779,1.817-0.779h14.707
			c0.788,0,1.395,0.212,1.817,0.638c0.422,0.425,0.634,0.945,0.634,1.559v9.988c0,3.73-0.803,6.729-2.409,8.996
			c-1.605,2.267-3.79,3.908-6.551,4.924C400.117,206.443,397.018,206.95,393.581,206.95z"/>
		<path fill="#FFFFFF" d="M439.899,206.95c-3.438,0-6.522-0.507-9.255-1.522c-2.734-1.016-4.902-2.657-6.509-4.924
			c-1.605-2.267-2.409-5.266-2.409-8.996v-21.323c0-3.729,0.804-6.729,2.409-8.996c1.606-2.267,3.774-3.907,6.509-4.923
			c2.732-1.015,5.761-1.523,9.086-1.523c3.72,0,6.944,0.531,9.679,1.594c2.732,1.063,4.873,2.539,6.424,4.428
			c1.549,1.889,2.324,4.108,2.324,6.658c0,1.134-0.311,1.901-0.93,2.303c-0.621,0.401-1.494,0.602-2.62,0.602
			c-0.959,0-1.775-0.152-2.451-0.46c-0.677-0.307-1.044-0.838-1.1-1.594c-0.226-1.652-0.732-3.082-1.521-4.286
			s-1.973-2.148-3.55-2.833c-1.578-0.685-3.606-1.028-6.086-1.028c-3.494,0-6.212,0.815-8.156,2.444
			c-1.944,1.63-2.916,4.169-2.916,7.615v21.323c0,3.447,0.972,5.985,2.916,7.615c1.944,1.629,4.662,2.443,8.156,2.443
			c3.493,0,6.227-0.814,8.199-2.443c1.972-1.63,2.958-4.168,2.958-7.615v-7.226h-10.058c-0.79,0-1.396-0.26-1.817-0.779
			c-0.423-0.52-0.634-1.086-0.634-1.7c0-0.613,0.211-1.18,0.634-1.7c0.422-0.52,1.027-0.779,1.817-0.779h14.707
			c0.788,0,1.395,0.212,1.817,0.638c0.422,0.425,0.634,0.945,0.634,1.559v9.988c0,3.73-0.803,6.729-2.409,8.996
			c-1.605,2.267-3.79,3.908-6.551,4.924C446.436,206.443,443.336,206.95,439.899,206.95z"/>
		<path fill="#FFFFFF" d="M471.849,206.525c-0.789,0-1.521-0.177-2.197-0.531c-0.677-0.354-1.015-0.886-1.015-1.594v-47.533
			c0-0.708,0.338-1.24,1.015-1.594c0.676-0.354,1.408-0.531,2.197-0.531h30.091c0.901,0,1.535,0.284,1.902,0.85
			c0.365,0.567,0.549,1.158,0.549,1.771c0,0.708-0.211,1.346-0.634,1.913c-0.423,0.567-1.028,0.85-1.817,0.85h-26.202v17.994h13.186
			c0.788,0,1.395,0.26,1.817,0.779s0.634,1.109,0.634,1.771c0,0.566-0.184,1.11-0.549,1.63c-0.367,0.52-1.002,0.778-1.902,0.778
			h-13.186v18.064h26.202c0.789,0,1.395,0.272,1.817,0.814c0.423,0.544,0.634,1.193,0.634,1.948c0,0.614-0.184,1.204-0.549,1.771
			c-0.367,0.566-1.001,0.85-1.902,0.85H471.849z"/>
		<path fill="#FFFFFF" d="M544.878,206.667c-0.676,0-1.282-0.235-1.817-0.708c-0.536-0.472-1.001-1.016-1.395-1.63l-12.679-20.756
			h-9.805V204.4c0,0.708-0.367,1.239-1.099,1.594c-0.733,0.354-1.551,0.531-2.451,0.531c-0.846,0-1.648-0.177-2.409-0.531
			s-1.142-0.886-1.142-1.594v-47.604c0-0.567,0.239-1.039,0.719-1.417c0.479-0.377,1.084-0.59,1.817-0.638h15.468
			c3.437,0,6.578,0.438,9.425,1.311c2.845,0.875,5.113,2.338,6.804,4.392c1.69,2.055,2.536,4.877,2.536,8.466
			c0,2.881-0.55,5.266-1.648,7.154c-1.099,1.89-2.606,3.365-4.521,4.428c-1.917,1.063-4.058,1.807-6.424,2.231l12.509,19.905
			c0.112,0.189,0.197,0.366,0.254,0.531c0.056,0.166,0.085,0.319,0.085,0.461c0,0.521-0.212,1.016-0.635,1.487
			c-0.422,0.473-0.958,0.851-1.605,1.134C546.216,206.525,545.554,206.667,544.878,206.667z M519.183,178.614h10.903
			c3.493,0,6.311-0.708,8.452-2.125c2.142-1.416,3.212-3.801,3.212-7.154c0-3.353-1.07-5.726-3.212-7.119
			c-2.142-1.393-4.959-2.09-8.452-2.09h-10.903V178.614z"/>
	</g>
</g>
</svg>
