<?xml version="1.0" encoding="utf-8"?>
<!-- Generator: Adobe Illustrator 16.0.0, SVG Export Plug-In . SVG Version: 6.00 Build 0)  -->
<!DOCTYPE svg PUBLIC "-//W3C//DTD SVG 1.1//EN" "http://www.w3.org/Graphics/SVG/1.1/DTD/svg11.dtd">
<svg version="1.1" id="Laag_1" xmlns="http://www.w3.org/2000/svg" xmlns:xlink="http://www.w3.org/1999/xlink" x="0px" y="0px"
	 width="587px" height="227px" viewBox="0 0 587 227" enable-background="new 0 0 587 227" xml:space="preserve">
<g id="icon-svglayers-f">
	<g id="group2">
		<path id="Color-Fill-35" fill="#FFFFFF" d="M294.632,160.268c-0.733,0-1.325-0.285-1.775-0.852
			c-0.452-0.566-0.676-1.229-0.676-1.984c0-0.66,0.197-1.274,0.592-1.842c0.396-0.566,1.016-0.85,1.859-0.85
			c34.483,0,34.483,0,34.483,0c0.848,0,1.466,0.283,1.861,0.85c0.393,0.567,0.59,1.182,0.59,1.842c0,0.709-0.197,1.358-0.59,1.948
			c-0.396,0.591-1.016,0.888-1.861,0.888c-13.689,0-13.689,0-13.689,0V204.4c0,0.707-0.367,1.238-1.102,1.594
			c-0.731,0.355-1.55,0.531-2.449,0.531c-0.902,0-1.721-0.178-2.451-0.531c-0.732-0.354-1.102-0.887-1.102-1.594
			c0-44.133,0-44.133,0-44.133H294.632z"/>
		<path id="Color-Fill-36" fill="#FFFFFF" d="M329.202,203.48c17.327-47.107,17.327-47.107,17.327-47.107
			c0.227-0.708,0.761-1.229,1.606-1.559c0.845-0.33,1.746-0.496,2.705-0.496c1.014,0,1.941,0.177,2.789,0.531
			c0.845,0.354,1.38,0.861,1.604,1.522c17.243,47.106,17.243,47.106,17.243,47.106c0.112,0.189,0.169,0.354,0.169,0.496
			c0,0.475-0.24,0.897-0.718,1.274c-0.479,0.379-1.059,0.687-1.733,0.921c-0.676,0.237-1.324,0.354-1.941,0.354
			c-0.621,0-1.156-0.104-1.606-0.316c-0.451-0.213-0.761-0.557-0.93-1.025c-3.806-10.558-3.806-10.558-3.806-10.558
			c-22.229,0-22.229,0-22.229,0l-3.635,10.558c-0.169,0.473-0.494,0.813-0.975,1.025c-0.477,0.212-1.054,0.318-1.729,0.318
			c-0.563,0-1.198-0.106-1.901-0.318c-0.706-0.213-1.269-0.508-1.688-0.887c-0.425-0.377-0.637-0.803-0.637-1.274
			C329.117,203.857,329.146,203.669,329.202,203.48z M360.308,189.736l-9.467-26.637l-9.469,26.637H360.308z"/>
		<path id="Color-Fill-37" fill="#FFFFFF" d="M379.406,170.186c0-3.729,0.806-6.729,2.409-8.996
			c1.606-2.268,3.774-3.906,6.509-4.922c2.732-1.016,5.763-1.523,9.086-1.523c3.722,0,6.944,0.531,9.681,1.594
			c2.73,1.063,4.873,2.539,6.424,4.43c1.549,1.889,2.324,4.106,2.324,6.656c0,1.135-0.313,1.901-0.932,2.305
			c-0.621,0.399-1.494,0.602-2.62,0.602c-0.959,0-1.773-0.152-2.449-0.46c-0.679-0.308-1.044-0.839-1.102-1.595
			c-0.226-1.651-0.73-3.082-1.521-4.285c-0.789-1.204-1.975-2.148-3.551-2.833c-1.577-0.687-3.605-1.028-6.087-1.028
			c-3.492,0-6.212,0.814-8.154,2.443c-1.944,1.631-2.916,4.17-2.916,7.615c0,21.322,0,21.322,0,21.322
			c0,3.447,0.972,5.985,2.916,7.615c1.942,1.629,4.662,2.441,8.154,2.441c3.493,0,6.229-0.813,8.199-2.441
			c1.974-1.63,2.958-4.168,2.958-7.615c0-7.226,0-7.226,0-7.226H398.68c-0.79,0-1.396-0.261-1.817-0.779
			c-0.423-0.521-0.634-1.086-0.634-1.698c0-0.613,0.211-1.182,0.634-1.701c0.422-0.521,1.027-0.778,1.817-0.778
			c14.707,0,14.707,0,14.707,0c0.788,0,1.395,0.212,1.815,0.638c0.424,0.426,0.636,0.945,0.636,1.559c0,9.988,0,9.988,0,9.988
			c0,3.73-0.805,6.729-2.409,8.996c-1.605,2.268-3.79,3.908-6.551,4.924c-2.763,1.012-5.86,1.519-9.299,1.519
			c-3.438,0-6.521-0.507-9.255-1.522c-2.733-1.015-4.9-2.656-6.509-4.924c-1.604-2.268-2.409-5.266-2.409-8.996
			C379.406,170.186,379.406,170.186,379.406,170.186z"/>
		<path id="Color-Fill-38" fill="#FFFFFF" d="M425.726,170.186c0-3.729,0.804-6.729,2.409-8.996
			c1.604-2.268,3.772-3.906,6.509-4.922c2.731-1.016,5.761-1.523,9.086-1.523c3.72,0,6.944,0.531,9.679,1.594
			c2.732,1.063,4.873,2.539,6.424,4.43c1.551,1.889,2.324,4.106,2.324,6.656c0,1.135-0.311,1.901-0.93,2.305
			c-0.621,0.399-1.494,0.602-2.62,0.602c-0.959,0-1.775-0.152-2.451-0.46c-0.677-0.308-1.044-0.839-1.1-1.595
			c-0.228-1.651-0.732-3.082-1.521-4.285c-0.789-1.204-1.973-2.148-3.55-2.833c-1.578-0.687-3.604-1.028-6.086-1.028
			c-3.494,0-6.212,0.814-8.156,2.443c-1.942,1.631-2.916,4.17-2.916,7.615c0,21.322,0,21.322,0,21.322
			c0,3.447,0.974,5.985,2.916,7.615c1.944,1.629,4.662,2.441,8.156,2.441c3.493,0,6.229-0.813,8.199-2.441
			c1.972-1.63,2.958-4.168,2.958-7.615c0-7.226,0-7.226,0-7.226h-10.06c-0.79,0-1.396-0.261-1.815-0.779
			c-0.423-0.521-0.634-1.086-0.634-1.698c0-0.613,0.211-1.182,0.634-1.701c0.422-0.521,1.026-0.778,1.815-0.778
			c14.707,0,14.707,0,14.707,0c0.788,0,1.396,0.212,1.817,0.638s0.634,0.945,0.634,1.559c0,9.988,0,9.988,0,9.988
			c0,3.73-0.803,6.729-2.409,8.996c-1.604,2.268-3.79,3.908-6.551,4.924c-2.759,1.012-5.858,1.519-9.296,1.519
			s-6.521-0.507-9.255-1.522s-4.902-2.656-6.509-4.924c-1.605-2.268-2.409-5.266-2.409-8.996
			C425.726,170.186,425.726,170.186,425.726,170.186z"/>
		<path id="Color-Fill-39" fill="#FFFFFF" d="M472.637,156.867c0-0.708,0.338-1.24,1.015-1.594c0.676-0.354,1.408-0.531,2.197-0.531
			c30.091,0,30.091,0,30.091,0c0.901,0,1.535,0.283,1.902,0.85c0.365,0.567,0.549,1.158,0.549,1.771
			c0,0.707-0.211,1.346-0.634,1.912c-0.423,0.567-1.028,0.851-1.817,0.851c-26.202,0-26.202,0-26.202,0c0,17.994,0,17.994,0,17.994
			h13.188c0.788,0,1.395,0.26,1.815,0.778c0.422,0.52,0.636,1.108,0.636,1.771c0,0.565-0.186,1.11-0.551,1.63
			c-0.365,0.521-1.002,0.778-1.9,0.778c-13.188,0-13.188,0-13.188,0c0,18.063,0,18.063,0,18.063h26.202
			c0.789,0,1.396,0.271,1.817,0.813c0.423,0.544,0.634,1.192,0.634,1.948c0,0.613-0.184,1.203-0.549,1.771
			c-0.367,0.566-1.001,0.851-1.902,0.851c-30.091,0-30.091,0-30.091,0v0.002c-0.789,0-1.521-0.178-2.197-0.531
			c-0.677-0.354-1.015-0.887-1.015-1.594C472.637,156.867,472.637,156.867,472.637,156.867z"/>
		<path id="Color-Fill-40" fill="#FFFFFF" d="M523.181,183.573V204.4c0,0.707-0.367,1.238-1.101,1.594
			c-0.731,0.354-1.551,0.531-2.449,0.531c-0.848,0-1.648-0.178-2.409-0.531s-1.144-0.887-1.144-1.594c0-47.604,0-47.604,0-47.604
			c0-0.567,0.239-1.039,0.721-1.417c0.479-0.377,1.084-0.59,1.815-0.638c15.468,0,15.468,0,15.468,0
			c3.438,0,6.578,0.438,9.427,1.311c2.845,0.875,5.111,2.339,6.804,4.392c1.69,2.057,2.536,4.877,2.536,8.468
			c0,2.881-0.55,5.266-1.648,7.153c-1.099,1.891-2.604,3.365-4.521,4.429c-1.917,1.063-4.06,1.807-6.424,2.229
			c12.509,19.905,12.509,19.905,12.509,19.905c0.11,0.188,0.197,0.366,0.254,0.531c0.056,0.166,0.085,0.319,0.085,0.461
			c0,0.521-0.212,1.016-0.635,1.487c-0.422,0.473-0.958,0.851-1.605,1.134c-0.647,0.284-1.31,0.426-1.985,0.426
			c-0.678,0-1.282-0.235-1.817-0.708c-0.536-0.473-1.001-1.016-1.396-1.63c-12.679-20.756-12.679-20.756-12.679-20.756
			C523.181,183.573,523.181,183.573,523.181,183.573z M542.536,162.216c-2.142-1.393-4.959-2.09-8.45-2.09
			c-10.903,0-10.903,0-10.903,0c0,18.488,0,18.488,0,18.488h10.903c3.491,0,6.311-0.708,8.45-2.125
			c2.144-1.416,3.214-3.802,3.214-7.154S544.68,163.609,542.536,162.216z"/>
	</g>
	<g id="group1">
		<g id="O">
			<g id="group">
				<path id="Color-Fill-1" fill="#FFFFFF" d="M237.429,184.432c-15.729,19.271-38.02,33.118-62.34,38.448
					c-22.812,5.07-47.23,3.021-68.74-6.21c-27.01-11.33-49.08-33.73-60.1-60.859c-10.59-25.931-11.2-55.971-1.062-82.13
					c1.551,0.97,3.102,1.94,4.722,2.8c1.028,6.34-1.86,12.3-2.802,18.45c-3.31,19.339-1.29,39.65,6.262,57.8
					c10.29,25.289,30.858,46.17,56,56.83c21.778,9.359,46.77,11.021,69.59,4.551c24.729-6.801,46.568-23.199,60.33-44.812
					c10.83-16.8,16.568-36.819,16.358-56.8c0.04-19.9-5.898-39.75-16.75-56.42C223.4,32.02,197.73,14.7,169.5,9.69
					c-18.852-3.31-38.79-1.83-56.562,5.49c7.96,8.65,16.62,16.63,24.802,25.08c8.63,9.04,17.55,17.79,26.38,26.62
					c4.3,4.37,9.5,8.17,12.18,13.85c3.26,6.41,3.13,13.8,3.06,20.81c-0.5,10.62,0.9,21.3-0.229,31.899
					c-0.45,5.351-5.44,9.591-10.73,9.631c-9.62,0.289-19.26-0.08-28.898,0.08c-7.062,0.01-14.49,0.609-21.05-2.541
					c-6.79-2.729-11.512-8.489-16.562-13.489c-10.51-10.49-20.95-21.06-31.56-31.45c-6.552-7.03-13.29-13.9-20.512-20.25
					c-2.92-2.83-5.979-5.65-7.988-9.22c-2.24-4.5-0.9-10.23,2.83-13.52C59.36,38.03,74.04,23.36,88.68,8.66
					c2.3-2.39,5.43-4.13,8.83-3.97c3.88-0.21,7.05,2.32,9.91,4.6c23.45-9.54,50.08-11.01,74.398-3.96
					c25.25,7.26,47.682,23.72,62.19,45.62c12.52,18.62,19.13,41.12,18.77,63.55C262.679,139.8,253.519,164.92,237.429,184.432z
					 M146.89,102.97c-4.89,1.42-8.56,6.38-8.25,11.5c0.102,6.38,6.43,11.86,12.771,10.94c6.479-0.59,11.47-7.38,9.92-13.76
					C160.21,105.3,153.05,100.98,146.89,102.97z"/>
			</g>
			<g id="group_1_">
				<path id="Color-Fill-2" fill="#FFFFFF" d="M296.281,134.856c-8.232-6.172-12.005-17.611-8.983-27.484
					c2.34-8.705,9.751-15.71,18.501-17.693c5.068-1.108,10.493-0.875,15.349,1.057c8.244,3.142,14.498,10.942,15.776,19.697
					c1.562,9.223-2.372,19.209-10.017,24.627C318.099,141.751,304.999,141.649,296.281,134.856z M302.757,121.2
					c4.825,6.722,16.141,5.349,19.413-2.196c4.351-7.92-3.566-18.395-12.347-16.442C301.55,103.66,296.988,114.876,302.757,121.2z"
					/>
			</g>
		</g>
		<g id="bg-black">
			<path id="Color-Fill-5" fill="#171A18" d="M239.291,169.3c-13.762,21.61-35.602,38.011-60.33,44.812
				c-22.82,6.471-47.812,4.811-69.59-4.551c-25.142-10.66-45.71-31.541-56-56.83c-7.552-18.15-9.57-38.461-6.262-57.8
				c0.94-6.15,3.83-12.11,2.802-18.45c-0.091-1.06-0.091-1.06-0.091-1.06c7.222,6.35,13.959,13.22,20.512,20.25
				c10.608,10.39,21.05,20.96,31.56,31.45c5.05,5,9.771,10.76,16.562,13.489c6.56,3.15,13.988,2.551,21.05,2.541
				c9.64-0.16,19.279,0.209,28.898-0.08c5.29-0.04,10.28-4.28,10.73-9.631c1.13-10.6-0.271-21.279,0.229-31.899
				c0.07-7.01,0.2-14.4-3.06-20.81c-2.68-5.68-7.88-9.48-12.18-13.85c-8.83-8.83-17.75-17.58-26.381-26.62
				c-8.181-8.45-16.841-16.43-24.801-25.08c17.771-7.32,37.71-8.8,56.562-5.49C197.73,14.7,223.4,32.02,238.9,56.08
				c10.852,16.67,16.79,36.52,16.75,56.42C255.86,132.48,250.121,152.5,239.291,169.3z"/>
			<path id="Color-Fill-6" fill="#171A18" d="M146.89,102.97c6.16-1.99,13.32,2.33,14.44,8.68c1.55,6.38-3.44,13.17-9.92,13.76
				c-6.342,0.92-12.67-4.561-12.771-10.94C138.33,109.35,142,104.39,146.89,102.97z"/>
		</g>
		<g id="N">
			<path id="Color-Fill-32" fill="#FFFFFF" d="M345.947,90.181c1.193-0.457,2.49-0.686,3.891-0.686c1.396,0,2.547,0.115,3.448,0.343
				c0.902,0.229,1.747,0.675,2.533,1.337c0.786,0.664,1.616,1.681,2.49,3.053c16.86,25.586,16.86,25.586,16.86,25.586V92.239
				c0-0.96,0.597-1.657,1.791-2.092c1.191-0.434,2.488-0.652,3.888-0.652c1.455,0,2.766,0.218,3.931,0.652
				c1.165,0.435,1.748,1.132,1.748,2.092c0,44.589,0,44.589,0,44.589c0,0.916-0.583,1.611-1.748,2.092s-2.476,0.721-3.931,0.721
				c-1.341,0-2.577-0.207-3.713-0.617c-1.138-0.412-2.055-1.144-2.752-2.195c-18.87-27.577-18.87-27.577-18.87-27.577v27.577
				c0,0.916-0.582,1.611-1.747,2.092s-2.475,0.721-3.929,0.721c-1.398,0-2.695-0.24-3.891-0.721
				c-1.191-0.48-1.791-1.177-1.791-2.092c0-44.52,0-44.52,0-44.52C344.156,91.348,344.755,90.639,345.947,90.181z"/>
		</g>
		<g id="E">
			<path id="Color-Fill-33" fill="#FFFFFF" d="M396.731,90.216c1.048-0.48,2.184-0.721,3.407-0.721c31.101,0,31.101,0,31.101,0
				c1.28,0,2.198,0.412,2.752,1.235c0.555,0.823,0.829,1.692,0.829,2.607c0,1.098-0.305,2.035-0.916,2.813
				c-0.61,0.778-1.501,1.166-2.665,1.166c-24.724,0-24.724,0-24.724,0c0,13.72,0,13.72,0,13.72h13.279
				c1.163,0,2.053,0.355,2.663,1.063c0.61,0.709,0.919,1.543,0.919,2.502c0,0.778-0.277,1.543-0.83,2.299
				c-0.557,0.754-1.474,1.132-2.752,1.132c-13.279,0-13.279,0-13.279,0c0,13.788,0,13.788,0,13.788h24.724
				c1.164,0,2.055,0.389,2.665,1.166c0.611,0.779,0.916,1.716,0.916,2.813c0,0.915-0.274,1.783-0.829,2.606
				c-0.554,0.822-1.472,1.234-2.752,1.234c-31.101,0-31.101,0-31.101,0l0,0c-1.226,0-2.359-0.24-3.407-0.721
				s-1.573-1.177-1.573-2.092c0-44.52,0-44.52,0-44.52C395.157,91.393,395.683,90.696,396.731,90.216z"/>
		</g>
		<path id="Color-Fill-34" fill="#FFFFFF" d="M398.545,89.98c1.027-0.481,2.145-0.723,3.346-0.723c30.539,0,30.539,0,30.539,0
			c1.257,0,2.157,0.413,2.702,1.239c0.542,0.826,0.813,1.699,0.813,2.617c0,1.102-0.3,2.043-0.899,2.823
			c-0.602,0.781-1.475,1.171-2.615,1.171c-24.277,0-24.277,0-24.277,0c0,13.772,0,13.772,0,13.772h13.039
			c1.146,0,2.016,0.355,2.616,1.067c0.602,0.712,0.899,1.549,0.899,2.514c0,0.781-0.271,1.549-0.813,2.308
			c-0.545,0.756-1.445,1.135-2.703,1.135c-13.039,0-13.039,0-13.039,0c0,13.842,0,13.842,0,13.842h24.277
			c1.143,0,2.016,0.391,2.615,1.171c0.602,0.78,0.899,1.721,0.899,2.823c0,0.919-0.271,1.791-0.813,2.617
			c-0.545,0.826-1.445,1.238-2.702,1.238c-30.539-0.001-30.539-0.001-30.539-0.001l0,0c-1.201,0-2.316-0.241-3.346-0.723
			c-1.03-0.481-1.544-1.181-1.544-2.101c0-44.689,0-44.689,0-44.689C397.001,91.163,397.515,90.462,398.545,89.98z"/>
	</g>
</g>
</svg>
