<?xml version="1.0" encoding="UTF-8" ?>
<!DOCTYPE svg PUBLIC "-//W3C//DTD SVG 1.1//EN" "http://www.w3.org/Graphics/SVG/1.1/DTD/svg11.dtd">
<svg width="180pt" height="180pt" viewBox="0 0 180 180" version="1.1" xmlns="http://www.w3.org/2000/svg">
<g id="#666666ff">
<path fill="#666666" opacity="1.00" d=" M 29.31 17.04 C 29.26 15.80 29.24 13.93 31.04 14.34 C 37.96 14.30 44.89 14.33 51.81 14.37 C 52.02 24.26 51.86 34.16 51.90 44.06 C 52.17 45.98 50.17 46.97 49.05 48.15 C 42.36 53.70 36.29 60.01 29.40 65.29 C 29.24 49.20 29.41 33.12 29.31 17.04 Z" />
<path fill="#666666" opacity="1.00" d=" M 136.35 24.79 C 136.83 24.99 137.78 25.38 138.26 25.58 L 137.47 26.07 L 136.49 25.66 L 136.35 24.79 Z" />
<path fill="#666666" opacity="1.00" d=" M 152.39 27.40 C 152.43 27.43 152.51 27.49 152.55 27.51 C 152.51 27.49 152.43 27.43 152.39 27.40 Z" />
<path fill="#666666" opacity="1.00" d=" M 77.27 30.46 C 77.33 30.41 77.43 30.32 77.48 30.28 C 77.43 30.32 77.33 30.41 77.27 30.46 Z" />
<path fill="#666666" opacity="1.00" d=" M 149.37 30.50 C 149.41 30.53 149.48 30.57 149.52 30.60 C 149.48 30.57 149.41 30.53 149.37 30.50 Z" />
<path fill="#666666" opacity="1.00" d=" M 104.48 32.25 C 104.56 32.32 104.73 32.47 104.81 32.54 C 104.73 32.47 104.56 32.32 104.48 32.25 Z" />
<path fill="#666666" opacity="1.00" d=" M 69.19 37.44 C 69.25 37.39 69.37 37.29 69.43 37.24 C 69.37 37.29 69.25 37.39 69.19 37.44 Z" />
<path fill="#666666" opacity="1.00" d=" M 111.57 38.30 C 111.61 38.34 111.70 38.42 111.75 38.46 C 111.70 38.42 111.61 38.34 111.57 38.30 Z" />
<path fill="#666666" opacity="1.00" d=" M 145.43 38.37 C 145.46 38.39 145.54 38.44 145.58 38.47 C 145.54 38.44 145.46 38.39 145.43 38.37 Z" />
<path fill="#666666" opacity="1.00" d=" M 164.46 39.41 C 164.49 39.45 164.54 39.53 164.57 39.57 C 164.54 39.53 164.49 39.45 164.46 39.41 Z" />
<path fill="#666666" opacity="1.00" d=" M 141.38 42.46 C 141.41 42.48 141.48 42.53 141.52 42.55 C 141.48 42.53 141.41 42.48 141.38 42.46 Z" />
<path fill="#666666" opacity="1.00" d=" M 161.42 42.51 C 161.44 42.55 161.49 42.62 161.51 42.66 C 161.49 42.62 161.44 42.55 161.42 42.51 Z" />
<path fill="#666666" opacity="1.00" d=" M 119.60 45.25 C 119.64 45.28 119.71 45.34 119.75 45.38 C 119.71 45.34 119.64 45.28 119.60 45.25 Z" />
<path fill="#666666" opacity="1.00" d=" M 153.50 46.38 C 153.53 46.42 153.57 46.48 153.60 46.52 C 153.57 46.48 153.53 46.42 153.50 46.38 Z" />
<path fill="#666666" opacity="1.00" d=" M 164.44 48.41 C 164.45 48.45 164.49 48.53 164.50 48.57 C 164.49 48.53 164.45 48.45 164.44 48.41 Z" />
<path fill="#666666" opacity="1.00" d=" M 165.47 51.34 C 165.49 51.40 165.53 51.50 165.55 51.55 C 165.53 51.50 165.49 51.40 165.47 51.34 Z" />
<path fill="#666666" opacity="1.00" d=" M 160.74 53.32 C 162.33 53.78 162.37 54.31 160.85 54.90 C 160.83 54.50 160.77 53.71 160.74 53.32 Z" />
<path fill="#666666" opacity="1.00" d=" M 29.95 101.29 C 49.95 85.73 69.77 69.95 89.87 54.52 C 109.97 69.95 129.61 86.00 149.81 101.31 C 150.10 104.22 150.23 107.14 150.21 110.07 C 150.17 127.86 150.25 145.65 150.16 163.45 C 142.76 163.52 135.35 163.47 127.95 163.48 C 127.92 146.32 127.94 129.17 127.94 112.01 C 127.71 103.93 126.76 95.53 122.70 88.37 C 118.89 81.56 112.34 76.35 104.81 74.30 C 95.00 72.74 84.93 72.58 75.13 74.25 C 68.88 75.94 63.06 79.63 59.26 84.93 C 54.13 91.81 52.16 100.56 51.93 109.00 C 51.85 126.72 51.96 144.44 51.88 162.15 C 52.25 163.98 49.97 163.36 48.98 163.51 C 42.48 163.46 35.97 163.48 29.47 163.49 C 29.15 149.35 29.42 135.20 29.33 121.06 C 29.45 114.47 28.94 107.83 29.95 101.29 Z" />
<path fill="#666666" opacity="1.00" d=" M 34.24 67.47 C 34.30 67.42 34.42 67.31 34.48 67.26 C 34.42 67.31 34.30 67.42 34.24 67.47 Z" />
<path fill="#666666" opacity="1.00" d=" M 27.25 73.48 C 27.31 73.43 27.42 73.33 27.48 73.28 C 27.42 73.33 27.31 73.43 27.25 73.48 Z" />
<path fill="#666666" opacity="1.00" d=" M 154.51 75.25 C 154.57 75.30 154.69 75.41 154.75 75.46 C 154.69 75.41 154.57 75.30 154.51 75.25 Z" />
<path fill="#666666" opacity="1.00" d=" M 20.31 79.43 C 20.36 79.39 20.45 79.30 20.49 79.26 C 20.45 79.30 20.36 79.39 20.31 79.43 Z" />
<path fill="#666666" opacity="1.00" d=" M 90.23 80.43 C 91.85 83.27 90.71 86.78 90.97 89.90 C 90.45 89.95 89.42 90.06 88.90 90.11 L 89.06 89.73 C 90.73 86.89 90.19 83.55 90.23 80.43 Z" />
<path fill="#666666" opacity="1.00" d=" M 161.51 81.25 C 161.57 81.31 161.69 81.41 161.75 81.46 C 161.69 81.41 161.57 81.31 161.51 81.25 Z" />
<path fill="#666666" opacity="1.00" d=" M 77.17 85.38 C 77.61 85.05 78.47 84.40 78.91 84.08 C 79.82 86.96 81.89 89.99 81.15 93.09 L 80.14 93.34 C 78.28 91.31 78.12 87.99 77.17 85.38 Z" />
<path fill="#666666" opacity="1.00" d=" M 100.32 84.94 C 100.88 84.87 101.99 84.73 102.55 84.66 C 101.85 87.80 101.22 91.04 99.49 93.80 C 99.09 93.36 98.29 92.47 97.90 92.03 C 98.92 89.74 99.44 87.28 100.32 84.94 Z" />
<path fill="#666666" opacity="1.00" d=" M 96.47 94.30 C 96.51 94.33 96.60 94.38 96.64 94.41 C 96.60 94.38 96.51 94.33 96.47 94.30 Z" />
<path fill="#666666" opacity="1.00" d=" M 67.90 96.87 C 67.36 94.46 69.78 95.00 70.95 96.10 C 72.88 97.62 76.53 98.27 76.15 101.37 C 73.14 100.44 70.39 98.78 67.90 96.87 Z" />
<path fill="#666666" opacity="1.00" d=" M 103.14 99.78 C 105.60 98.02 108.11 96.28 110.88 95.04 C 111.25 95.44 111.98 96.26 112.35 96.66 C 109.85 98.14 107.49 99.88 104.86 101.12 C 104.43 100.78 103.57 100.11 103.14 99.78 Z" />
<path fill="#666666" opacity="1.00" d=" M 105.03 106.95 C 108.00 106.05 111.16 107.04 114.21 107.05 C 114.09 107.49 113.86 108.36 113.74 108.79 C 110.64 108.94 107.09 109.72 104.30 108.01 C 107.39 108.09 110.56 108.41 113.58 107.51 C 110.74 107.13 107.88 106.97 105.03 106.95 Z" />
<path fill="#666666" opacity="1.00" d=" M 65.35 108.27 C 68.75 108.12 72.15 108.00 75.55 107.95 C 72.60 109.62 68.47 109.41 65.35 108.27 Z" />
<path fill="#666666" opacity="1.00" d=" M 99.51 116.57 C 99.53 116.53 99.58 116.44 99.61 116.40 C 99.58 116.44 99.53 116.53 99.51 116.57 Z" />
<path fill="#666666" opacity="1.00" d=" M 81.42 118.47 C 81.44 118.52 81.50 118.60 81.53 118.64 C 81.50 118.60 81.44 118.52 81.42 118.47 Z" />
<path fill="#666666" opacity="1.00" d=" M 97.52 119.58 C 97.54 119.54 97.60 119.46 97.63 119.42 C 97.60 119.46 97.54 119.54 97.52 119.58 Z" />
<path fill="#666666" opacity="1.00" d=" M 104.25 132.19 L 105.14 132.03 C 104.93 132.51 104.50 133.47 104.29 133.95 L 103.82 133.17 L 104.25 132.19 Z" />
<path fill="#666666" opacity="1.00" d=" M 57.07 140.22 C 58.15 139.74 59.22 139.24 60.29 138.74 C 58.99 139.87 57.12 140.98 57.23 142.97 C 57.08 149.67 56.87 156.38 56.48 163.08 C 66.31 163.20 76.13 163.10 85.96 163.13 C 84.56 159.32 83.10 155.53 81.92 151.64 C 84.12 155.38 85.77 159.73 86.32 164.06 C 76.23 163.92 66.13 164.05 56.03 163.99 C 55.63 156.03 56.36 148.13 57.07 140.22 Z" />
<path fill="#666666" opacity="1.00" d=" M 83.67 142.95 C 81.92 143.11 82.47 138.82 84.19 139.45 C 84.13 140.63 83.96 141.80 83.67 142.95 Z" />
<path fill="#666666" opacity="1.00" d=" M 77.90 141.01 L 78.80 141.15 L 79.22 142.15 L 78.74 142.95 C 78.53 142.46 78.11 141.49 77.90 141.01 Z" />
</g>
<g id="#878787ff">
<path fill="#878787" opacity="1.00" d=" M 77.48 30.28 C 81.73 26.85 85.64 23.03 89.99 19.73 C 94.73 24.01 99.66 28.06 104.48 32.25 C 104.56 32.32 104.73 32.47 104.81 32.54 C 107.01 34.52 109.32 36.38 111.57 38.30 C 111.61 38.34 111.70 38.42 111.75 38.46 C 114.28 40.82 117.02 42.94 119.60 45.25 C 119.64 45.28 119.71 45.34 119.75 45.38 C 131.34 55.33 142.90 65.33 154.51 75.25 C 154.57 75.30 154.69 75.41 154.75 75.46 C 156.92 77.48 159.25 79.33 161.51 81.25 C 161.57 81.31 161.69 81.41 161.75 81.46 C 167.23 86.52 173.29 90.94 178.51 96.25 C 169.70 96.42 160.89 96.30 152.09 96.32 C 131.35 79.81 110.51 63.42 89.93 46.72 C 69.27 63.16 48.68 79.70 27.94 96.03 C 19.08 96.72 10.09 96.18 1.18 96.29 C 7.19 90.27 14.04 85.16 20.31 79.43 C 20.36 79.39 20.45 79.30 20.49 79.26 C 22.77 77.36 25.07 75.49 27.25 73.48 C 27.31 73.43 27.42 73.33 27.48 73.28 C 29.74 71.35 32.07 69.49 34.24 67.47 C 34.30 67.42 34.42 67.31 34.48 67.26 C 46.08 57.36 57.61 47.37 69.19 37.44 C 69.25 37.39 69.37 37.29 69.43 37.24 C 71.99 34.92 74.74 32.81 77.27 30.46 C 77.33 30.41 77.43 30.32 77.48 30.28 Z" />
<path fill="#878787" opacity="1.00" d=" M 131.48 24.51 C 130.34 23.20 130.62 20.32 132.89 20.77 C 139.84 21.07 146.58 23.65 152.39 27.40 C 152.43 27.43 152.51 27.49 152.55 27.51 C 157.29 30.61 161.36 34.68 164.46 39.41 C 164.49 39.45 164.54 39.53 164.57 39.57 C 167.18 43.95 169.90 48.64 170.05 53.88 C 169.51 54.24 168.42 54.95 167.87 55.31 C 166.75 54.28 165.87 53.06 165.55 51.55 C 165.53 51.50 165.49 51.40 165.47 51.34 C 165.23 50.65 164.75 49.27 164.50 48.57 C 164.49 48.53 164.45 48.45 164.44 48.41 C 163.61 46.42 162.63 44.49 161.51 42.66 C 161.49 42.62 161.44 42.55 161.42 42.51 C 158.39 37.71 154.31 33.64 149.52 30.60 C 149.48 30.57 149.41 30.53 149.37 30.50 C 146.00 28.17 142.04 27.03 138.26 25.58 C 137.78 25.38 136.83 24.99 136.35 24.79 C 134.74 24.95 133.01 25.19 131.48 24.51 Z" />
<path fill="#878787" opacity="1.00" d=" M 132.27 33.58 C 130.17 33.21 130.04 30.12 132.08 29.44 C 144.81 30.20 156.37 39.34 160.70 51.23 C 160.71 51.75 160.73 52.80 160.74 53.32 C 160.77 53.71 160.83 54.50 160.85 54.90 L 161.17 56.01 C 159.72 56.73 157.95 56.36 157.42 54.72 C 156.37 51.89 155.34 49.01 153.60 46.52 C 153.57 46.48 153.53 46.42 153.50 46.38 C 151.32 43.33 148.64 40.64 145.58 38.47 C 145.54 38.44 145.46 38.39 145.43 38.37 C 141.50 35.73 136.95 34.17 132.27 33.58 Z" />
<path fill="#878787" opacity="1.00" d=" M 130.14 41.79 C 130.03 40.45 131.55 38.93 132.91 39.38 C 135.89 39.86 138.76 40.95 141.38 42.46 C 141.41 42.48 141.48 42.53 141.52 42.55 C 146.39 45.64 150.38 50.45 151.84 56.08 C 151.91 58.07 149.67 58.08 148.24 58.04 C 146.33 51.99 141.84 46.52 135.71 44.48 C 133.80 43.76 131.24 43.81 130.14 41.79 Z" />
<path fill="#878787" opacity="1.00" d=" M 89.06 89.73 C 89.40 86.77 87.46 82.48 90.23 80.43 C 90.19 83.55 90.73 86.89 89.06 89.73 Z" />
<path fill="#878787" opacity="1.00" d=" M 78.09 101.13 C 80.24 93.61 89.91 89.93 96.47 94.30 C 96.51 94.33 96.60 94.38 96.64 94.41 C 100.81 97.18 102.46 102.28 102.76 107.04 C 102.49 110.35 101.17 113.50 99.61 116.40 C 99.58 116.44 99.53 116.53 99.51 116.57 C 99.04 117.28 98.10 118.71 97.63 119.42 C 97.60 119.46 97.54 119.54 97.52 119.58 C 95.00 122.74 95.39 127.46 96.86 131.02 C 95.46 131.39 94.66 132.38 94.46 133.99 L 93.70 133.79 C 93.72 133.22 93.76 132.07 93.78 131.49 L 94.92 131.65 C 94.99 130.58 95.06 129.51 95.12 128.45 C 91.65 128.93 88.14 128.86 84.66 128.52 C 84.96 129.80 85.32 131.07 85.98 132.22 C 86.04 132.66 86.17 133.53 86.23 133.96 C 81.55 130.06 86.11 122.68 81.53 118.64 C 81.50 118.60 81.44 118.52 81.42 118.47 C 78.02 113.48 75.61 107.05 78.09 101.13 Z" />
<path fill="#878787" opacity="1.00" d=" M 65.35 108.27 C 66.28 106.48 68.47 106.99 70.09 106.72 C 71.98 106.70 74.28 106.08 75.55 107.95 C 72.15 108.00 68.75 108.12 65.35 108.27 Z" />
<path fill="#878787" opacity="1.00" d=" M 105.03 106.95 C 107.88 106.97 110.74 107.13 113.58 107.51 C 110.56 108.41 107.39 108.09 104.30 108.01 L 105.03 106.95 Z" />
<path fill="#878787" opacity="1.00" d=" M 73.10 131.95 C 73.78 130.41 74.33 130.41 74.74 131.95 C 74.33 131.95 73.51 131.95 73.10 131.95 Z" />
<path fill="#878787" opacity="1.00" d=" M 107.02 132.12 C 108.31 131.36 111.03 132.76 110.70 134.31 C 109.13 134.36 107.77 133.48 107.02 132.12 Z" />
<path fill="#878787" opacity="1.00" d=" M 67.23 135.31 C 66.91 133.74 69.64 132.39 70.94 133.11 C 70.19 134.47 68.81 135.34 67.23 135.31 Z" />
<path fill="#878787" opacity="1.00" d=" M 74.88 132.51 C 76.48 134.94 77.46 137.80 77.86 140.67 C 76.56 138.07 75.45 135.37 74.88 132.51 Z" />
<path fill="#878787" opacity="1.00" d=" M 100.73 143.33 C 101.47 140.20 102.46 137.07 104.13 134.30 C 103.48 137.48 102.38 140.54 100.73 143.33 Z" />
<path fill="#878787" opacity="1.00" d=" M 112.57 135.31 C 114.28 134.97 117.38 136.44 117.63 138.20 C 115.49 138.32 113.73 136.99 112.57 135.31 Z" />
<path fill="#878787" opacity="1.00" d=" M 62.11 138.24 C 61.62 136.73 64.25 135.62 65.41 136.31 C 64.68 137.45 63.47 138.18 62.11 138.24 Z" />
<path fill="#878787" opacity="1.00" d=" M 94.84 138.31 C 96.67 138.02 98.35 142.56 95.94 142.82 C 95.52 141.32 95.16 139.82 94.84 138.31 Z" />
<path fill="#878787" opacity="1.00" d=" M 119.48 139.01 C 120.72 139.48 121.91 140.07 123.05 140.75 C 123.01 143.63 123.01 146.51 122.85 149.39 C 122.51 146.60 122.20 143.80 121.94 141.00 C 121.12 140.33 120.30 139.67 119.48 139.01 Z" />
<path fill="#878787" opacity="1.00" d=" M 78.86 143.27 C 80.36 145.63 81.45 148.34 81.71 151.14 C 80.41 148.65 79.52 145.99 78.86 143.27 Z" />
<path fill="#878787" opacity="1.00" d=" M 84.13 144.43 C 85.60 147.66 86.47 151.09 87.12 154.56 C 85.43 151.48 84.50 147.92 84.13 144.43 Z" />
<path fill="#878787" opacity="1.00" d=" M 92.92 153.38 C 93.56 149.94 94.49 146.57 95.88 143.36 C 95.41 146.79 94.70 150.39 92.92 153.38 Z" />
<path fill="#878787" opacity="1.00" d=" M 97.26 153.18 C 97.43 150.30 98.75 147.59 100.12 145.09 C 99.56 147.91 98.58 150.63 97.26 153.18 Z" />
<path fill="#878787" opacity="1.00" d=" M 89.23 162.80 C 90.73 159.97 91.74 156.92 92.76 153.90 C 92.85 156.41 91.76 158.73 91.18 161.13 C 91.03 162.53 90.20 163.61 89.06 164.37 C 89.10 163.98 89.19 163.19 89.23 162.80 Z" />
<path fill="#878787" opacity="1.00" d=" M 94.09 161.49 C 94.58 158.73 95.44 155.93 97.08 153.62 C 96.40 156.35 95.48 159.03 94.09 161.49 Z" />
<path fill="#878787" opacity="1.00" d=" M 87.24 155.06 C 89.01 156.39 89.17 158.72 89.10 160.75 C 87.28 160.29 86.83 156.73 87.24 155.06 Z" />
</g>
<g id="#efefefff">
<path fill="#efefef" opacity="1.00" d=" M 85.98 132.22 C 85.32 131.07 84.96 129.80 84.66 128.52 C 88.14 128.86 91.65 128.93 95.12 128.45 C 95.06 129.51 94.99 130.58 94.92 131.65 L 93.78 131.49 C 93.76 132.07 93.72 133.22 93.70 133.79 C 91.31 135.29 88.72 134.96 86.23 133.96 C 86.17 133.53 86.04 132.66 85.98 132.22 Z" />
<path fill="#efefef" opacity="1.00" d=" M 105.01 130.86 C 105.52 131.18 106.52 131.81 107.02 132.12 C 107.77 133.48 109.13 134.36 110.70 134.31 C 111.17 134.56 112.10 135.06 112.57 135.31 C 113.73 136.99 115.49 138.32 117.63 138.20 L 118.52 138.27 C 118.76 138.45 119.24 138.82 119.48 139.01 C 120.30 139.67 121.12 140.33 121.94 141.00 C 122.20 143.80 122.51 146.60 122.85 149.39 C 123.39 154.12 123.63 158.87 123.66 163.63 C 113.46 163.61 103.27 163.72 93.07 163.57 C 93.33 163.05 93.84 162.01 94.09 161.49 C 95.48 159.03 96.40 156.35 97.08 153.62 L 97.26 153.18 C 98.58 150.63 99.56 147.91 100.12 145.09 C 100.27 144.65 100.57 143.77 100.73 143.33 C 102.38 140.54 103.48 137.48 104.13 134.30 L 104.29 133.95 C 104.50 133.47 104.93 132.51 105.14 132.03 L 105.01 130.86 Z" />
<path fill="#efefef" opacity="1.00" d=" M 70.94 133.11 C 71.48 132.82 72.56 132.24 73.10 131.95 C 73.51 131.95 74.33 131.95 74.74 131.95 L 74.88 132.51 C 75.45 135.37 76.56 138.07 77.86 140.67 L 77.90 141.01 C 78.11 141.49 78.53 142.46 78.74 142.95 L 78.86 143.27 C 79.52 145.99 80.41 148.65 81.71 151.14 L 81.92 151.64 C 83.10 155.53 84.56 159.32 85.96 163.13 C 76.13 163.10 66.31 163.20 56.48 163.08 C 56.87 156.38 57.08 149.67 57.23 142.97 C 57.12 140.98 58.99 139.87 60.29 138.74 C 60.75 138.62 61.66 138.37 62.11 138.24 C 63.47 138.18 64.68 137.45 65.41 136.31 C 65.86 136.06 66.78 135.56 67.23 135.31 C 68.81 135.34 70.19 134.47 70.94 133.11 Z" />
<path fill="#efefef" opacity="1.00" d=" M 84.19 139.45 C 84.36 137.94 85.47 136.76 86.11 135.44 C 88.57 135.31 91.04 135.28 93.51 135.38 C 94.08 136.30 94.52 137.28 94.84 138.31 C 95.16 139.82 95.52 141.32 95.94 142.82 L 95.88 143.36 C 94.49 146.57 93.56 149.94 92.92 153.38 L 92.76 153.90 C 91.74 156.92 90.73 159.97 89.23 162.80 L 89.10 160.75 C 89.17 158.72 89.01 156.39 87.24 155.06 L 87.12 154.56 C 86.47 151.09 85.60 147.66 84.13 144.43 L 83.67 142.95 C 83.96 141.80 84.13 140.63 84.19 139.45 Z" />
</g>
</svg>
