<?xml version="1.0" encoding="UTF-8" ?>
<!DOCTYPE svg PUBLIC "-//W3C//DTD SVG 1.1//EN" "http://www.w3.org/Graphics/SVG/1.1/DTD/svg11.dtd">
<svg width="120pt" height="120pt" viewBox="0 0 120 120" version="1.1" xmlns="http://www.w3.org/2000/svg">
<g id="#ecececff">
<path fill="#ececec" opacity="1.00" d=" M 53.31 5.47 C 66.47 3.78 80.19 7.47 91.01 15.09 C 104.82 24.69 113.59 41.09 113.93 57.89 C 114.34 69.55 110.78 81.27 104.07 90.79 C 94.66 104.43 78.63 113.25 62.07 113.89 C 49.24 114.60 36.27 110.45 26.14 102.58 C 13.90 93.24 6.04 78.44 5.12 63.08 C 4.24 50.69 7.83 38.06 15.05 27.96 C 23.81 15.46 38.14 7.07 53.31 5.47 M 36.20 44.11 C 36.91 50.00 40.30 55.55 45.46 58.56 C 53.44 63.81 63.58 63.77 71.72 68.61 C 70.76 73.88 64.18 74.53 59.97 75.99 C 50.04 77.88 39.93 78.71 29.82 78.53 C 29.90 84.30 29.83 90.07 29.82 95.84 C 40.53 95.83 51.25 95.00 61.82 93.26 C 71.28 91.15 81.81 87.59 86.70 78.48 C 90.63 71.01 89.21 60.91 82.59 55.41 C 74.47 48.18 62.66 48.77 53.64 43.30 C 63.85 42.64 74.09 43.29 84.32 43.03 C 84.42 37.25 84.33 31.47 84.40 25.69 C 73.93 25.74 63.45 25.63 52.98 25.76 C 43.52 25.83 35.56 34.79 36.20 44.11 Z" />
</g>
<g id="#3a3a3aff">
<path fill="#3a3a3a" opacity="1.00" d=" M 36.20 44.11 C 35.56 34.79 43.52 25.83 52.98 25.76 C 63.45 25.63 73.93 25.74 84.40 25.69 C 84.33 31.47 84.42 37.25 84.32 43.03 C 74.09 43.29 63.85 42.64 53.64 43.30 C 62.66 48.77 74.47 48.18 82.59 55.41 C 89.21 60.91 90.63 71.01 86.70 78.48 C 81.81 87.59 71.28 91.15 61.82 93.26 C 51.25 95.00 40.53 95.83 29.82 95.84 C 29.83 90.07 29.90 84.30 29.82 78.53 C 39.93 78.71 50.04 77.88 59.97 75.99 C 64.18 74.53 70.76 73.88 71.72 68.61 C 63.58 63.77 53.44 63.81 45.46 58.56 C 40.30 55.55 36.91 50.00 36.20 44.11 Z" />
</g>
</svg>
