<?xml version="1.0" encoding="UTF-8" ?>
<!DOCTYPE svg PUBLIC "-//W3C//DTD SVG 1.1//EN" "http://www.w3.org/Graphics/SVG/1.1/DTD/svg11.dtd">
<svg width="144pt" height="144pt" viewBox="0 0 144 144" version="1.1" xmlns="http://www.w3.org/2000/svg">
<g id="#909090ff">
<path fill="#909090" opacity="1.00" d=" M 19.00 26.06 C 25.99 26.08 32.98 26.09 39.96 26.06 C 50.51 44.17 60.94 62.36 71.43 80.51 C 82.24 62.52 92.43 44.15 103.08 26.06 C 110.07 26.10 117.06 26.06 124.05 26.08 C 106.49 56.33 89.05 86.64 71.57 116.94 C 53.92 86.73 36.59 56.32 19.00 26.06 Z" />
</g>
<g id="#333333ff">
<path fill="#333333" opacity="1.00" d=" M 39.96 26.06 C 46.51 26.17 53.07 25.84 59.60 26.22 C 63.48 33.18 67.49 40.08 71.54 46.94 C 75.52 40.05 79.57 33.20 83.43 26.24 C 89.96 25.81 96.53 26.18 103.08 26.06 C 92.43 44.15 82.24 62.52 71.43 80.51 C 60.94 62.36 50.51 44.17 39.96 26.06 Z" />
</g>
</svg>
